<?xml version="1.0" encoding="UTF-8"?>
<svg version="1.1" xmlns="http://www.w3.org/2000/svg" width="463" height="271">
<path d="M0 0 C2.99109318 1.50415818 3.9176878 3.5174549 5.59765625 6.3984375 C6.09821533 7.24607666 6.09821533 7.24607666 6.60888672 8.11083984 C7.7635324 10.0746261 8.89867349 12.04908979 10.03515625 14.0234375 C10.95219195 15.5916918 11.87020255 17.15937635 12.7890625 18.7265625 C17.13585419 26.1636804 21.420012 33.62777135 25.5078125 41.2109375 C27.50812053 44.89436916 29.54808946 48.55472764 31.59765625 52.2109375 C31.98445557 52.90171387 32.37125488 53.59249023 32.76977539 54.30419922 C34.78571895 57.88205665 36.85994353 61.39036848 39.09765625 64.8359375 C41.03515625 68.0234375 41.03515625 68.0234375 41.03515625 71.0234375 C41.69515625 71.0234375 42.35515625 71.0234375 43.03515625 71.0234375 C43.36201416 71.63227783 43.68887207 72.24111816 44.02563477 72.8684082 C51.78659546 87.41772678 51.78659546 87.41772678 60.3984375 101.46875 C62.37156357 104.54852196 64.17673694 107.7136624 65.97265625 110.8984375 C69.81956734 117.7183049 73.88729499 124.38244687 78.03515625 131.0234375 C75.38793589 125.4384482 72.64839277 119.9734576 69.4453125 114.6875 C68.99655762 113.9462085 68.54780273 113.20491699 68.08544922 112.44116211 C67.19250756 110.97985396 66.28950721 109.52463413 65.37548828 108.07641602 C62.72621354 103.73979949 61.12775167 100.2396463 61.03515625 95.0234375 C61.93359375 92.4609375 61.93359375 92.4609375 63.41015625 90.0234375 C64.25126953 88.59837891 64.25126953 88.59837891 65.109375 87.14453125 C65.74488281 86.11457031 66.38039063 85.08460937 67.03515625 84.0234375 C68.06454134 82.32106951 69.09381903 80.61863451 70.12036133 78.91455078 C70.86393284 77.68102905 71.6099211 76.44896134 72.3581543 75.21826172 C76.12692463 68.97841007 79.61148522 62.58921262 83.0534668 56.16430664 C85.69259884 51.28519339 88.52786817 46.65266887 91.68969727 42.09326172 C93.07220537 39.96644195 94.19223429 37.81079119 95.28515625 35.5234375 C98.33097261 29.21565007 101.94750688 23.25934619 105.53515625 17.25 C107.10217274 14.62203237 108.62744268 11.98016005 110.09765625 9.296875 C110.69578125 8.21664063 111.29390625 7.13640625 111.91015625 6.0234375 C112.42320312 5.0746875 112.93625 4.1259375 113.46484375 3.1484375 C115.03515625 1.0234375 115.03515625 1.0234375 117.10546875 0.1484375 C119.03515625 0.0234375 119.03515625 0.0234375 121.03515625 1.0234375 C122.00742311 2.63704907 122.91373233 4.29070833 123.78515625 5.9609375 C125.77927913 9.71201816 127.82298082 13.39663409 130.03515625 17.0234375 C131.9950064 20.25467762 133.86819319 23.50875463 135.66015625 26.8359375 C140.15484575 35.16294121 144.91182802 43.34337916 149.61914062 51.55126953 C150.82909755 53.66368742 152.03536441 55.77809988 153.23828125 57.89453125 C157.24468134 64.93830377 161.33241894 71.92828048 165.45654297 78.90356445 C168.30166949 83.7321096 171.02433064 88.61282689 173.67578125 93.55078125 C175.52959043 96.92279622 177.53262925 100.19682652 179.53125 103.484375 C181.12297432 106.17170178 182.61670427 108.8986392 184.09765625 111.6484375 C186.17877281 115.50796275 188.38576049 119.22518929 190.74609375 122.91796875 C192.84000379 126.33802182 194.71296735 129.87578201 196.60546875 133.41015625 C197.58272301 135.19644888 198.62316881 136.94921541 199.71484375 138.66796875 C201.03515625 141.0234375 201.03515625 141.0234375 201.03515625 144.0234375 C201.69515625 144.0234375 202.35515625 144.0234375 203.03515625 144.0234375 C203.36612305 144.61020264 203.69708984 145.19696777 204.03808594 145.80151367 C210.18607494 156.69800967 216.34223457 167.58990244 222.53515625 178.4609375 C223.01436523 179.30487061 223.49357422 180.14880371 223.98730469 181.01831055 C226.54447664 185.49964223 229.19032895 189.90314252 231.9453125 194.26538086 C233.32422434 196.4897411 234.56551992 198.77088707 235.78515625 201.0859375 C237.56658074 204.42027915 239.41947353 207.67918913 241.41796875 210.88671875 C241.82950195 211.5511499 242.24103516 212.21558105 242.66503906 212.90014648 C243.48053218 214.20893298 244.30510587 215.51211517 245.13964844 216.80883789 C247.32528515 220.32790061 248.66761024 222.84307088 248.03515625 227.0234375 C246.46637994 228.59221381 244.8833299 228.20526105 242.70239258 228.26391602 C241.78085892 228.28966202 240.85932526 228.31540802 239.90986633 228.3419342 C235.67629158 228.42598788 231.44289937 228.49199904 227.20874023 228.53833008 C224.97668036 228.56994566 222.74478782 228.61767414 220.51342773 228.68188477 C217.29737097 228.77321343 214.08434594 228.81195906 210.8671875 228.83984375 C209.87322464 228.87799698 208.87926178 228.91615021 207.85517883 228.95545959 C201.08632 228.93651387 201.08632 228.93651387 198.14404297 226.38075256 C196.57263027 224.33359037 195.28142401 222.28120089 194.03515625 220.0234375 C193.44911621 219.07637939 192.86307617 218.12932129 192.25927734 217.15356445 C191.78055176 216.28175537 191.30182617 215.40994629 190.80859375 214.51171875 C190.25824463 213.51793213 189.70789551 212.52414551 189.14086914 211.50024414 C188.56973389 210.45602295 187.99859863 209.41180176 187.41015625 208.3359375 C186.1674127 206.09073274 184.92391165 203.8459471 183.6796875 201.6015625 C183.06432129 200.48845703 182.44895508 199.37535156 181.81494141 198.22851562 C179.27824877 193.66038106 176.69508599 189.11974537 174.09765625 184.5859375 C173.61570801 183.74401855 173.13375977 182.90209961 172.63720703 182.03466797 C168.07165508 174.07003339 163.47795615 166.12160595 158.88525391 158.17260742 C154.5610609 150.68344748 150.26431064 143.17913957 145.98095703 135.66659546 C140.45273077 125.97228852 134.89784207 116.29415097 129.28515625 106.6484375 C128.71273193 105.66214355 128.14030762 104.67584961 127.55053711 103.65966797 C123.54132872 96.6802674 123.54132872 96.6802674 119.03515625 90.0234375 C118.37515625 90.0234375 117.71515625 90.0234375 117.03515625 90.0234375 C115.41105827 92.35644835 115.41105827 92.35644835 113.78515625 95.3359375 C113.15480469 96.44710937 112.52445312 97.55828125 111.875 98.703125 C109.86309087 102.33395888 107.8795428 105.97910368 105.90234375 109.62890625 C103.29698829 114.36542067 100.64072362 119.07201683 97.97265625 123.7734375 C97.21239136 125.12296509 97.21239136 125.12296509 96.43676758 126.49975586 C88.61742979 140.23230073 88.61742979 140.23230073 85.03515625 142.0234375 C86.30348313 144.58720514 87.5747199 147.14945962 88.84765625 149.7109375 C89.20408203 150.43216797 89.56050781 151.15339844 89.92773438 151.89648438 C92.88049981 158.96798449 92.88049981 158.96798449 98.03515625 164.0234375 C98.42368774 162.97591309 98.42368774 162.97591309 98.82006836 161.90722656 C100.15582931 158.73704205 101.7533504 155.8602397 103.4765625 152.8828125 C103.96817116 152.03133636 103.96817116 152.03133636 104.4697113 151.16265869 C105.15816596 149.97178606 105.84821995 148.78183672 106.53979492 147.59277344 C107.60130891 145.76715557 108.65747916 143.93852627 109.71289062 142.109375 C114.88602087 133.17257288 114.88602087 133.17257288 116.03515625 132.0234375 C117.7013274 131.98279918 119.3690372 131.9807165 121.03515625 132.0234375 C121.03515625 133.0134375 121.03515625 134.0034375 121.03515625 135.0234375 C121.69515625 135.0234375 122.35515625 135.0234375 123.03515625 135.0234375 C123.50187744 135.88956665 123.50187744 135.88956665 123.97802734 136.77319336 C131.47214253 150.65724492 139.03101912 164.49461809 147.43359375 177.85546875 C147.99771973 178.75543579 147.99771973 178.75543579 148.57324219 179.67358398 C149.58678627 181.28200468 150.61133354 182.88347715 151.63671875 184.484375 C153.03515625 187.0234375 153.03515625 187.0234375 153.03515625 190.0234375 C153.69515625 190.0234375 154.35515625 190.0234375 155.03515625 190.0234375 C155.62683594 191.1578125 156.21851563 192.2921875 156.828125 193.4609375 C157.62613822 194.98185682 158.4243246 196.5026853 159.22265625 198.0234375 C159.61001953 198.76722656 159.99738281 199.51101562 160.39648438 200.27734375 C162.76265784 204.77502885 165.27670279 209.07616033 168.1105957 213.296875 C169.03515625 215.0234375 169.03515625 215.0234375 169.03515625 218.0234375 C169.69515625 218.0234375 170.35515625 218.0234375 171.03515625 218.0234375 C172.66015625 220.7734375 172.66015625 220.7734375 174.03515625 224.0234375 C173.37515625 225.3434375 172.71515625 226.6634375 172.03515625 228.0234375 C136.72515625 228.0234375 101.41515625 228.0234375 65.03515625 228.0234375 C64.37515625 226.7034375 63.71515625 225.3834375 63.03515625 224.0234375 C64.08558661 221.39955914 65.50047731 219.16524704 66.96875 216.75390625 C68.45405581 212.95087051 68.0817325 210.98169477 67.03515625 207.0234375 C65.40864655 203.58344168 63.49318401 200.34613429 61.53515625 197.0859375 C60.43831695 195.21512809 59.34196744 193.34403145 58.24609375 191.47265625 C57.70178711 190.55145996 57.15748047 189.63026367 56.59667969 188.68115234 C54.40275063 184.94708235 52.27513422 181.17762261 50.16015625 177.3984375 C49.79341797 176.74560791 49.42667969 176.09277832 49.04882812 175.42016602 C46.52880849 170.92778183 44.05911848 166.40953687 41.6015625 161.8828125 C37.17152201 153.79605529 32.59910738 145.78677883 28.05859375 137.76171875 C26.9882496 135.86980957 25.91793794 133.97788202 24.84765625 132.0859375 C24.03458008 130.64879395 24.03458008 130.64879395 23.20507812 129.18261719 C18.34681318 120.58874805 13.52074805 111.97700944 8.7043457 103.35961914 C5.83834794 98.23361089 2.96044113 93.11586498 0.03515625 88.0234375 C-6.17011454 95.18336533 -10.3030262 103.59688545 -14.42675781 112.0559082 C-16.25066295 115.74562991 -18.24272048 118.97428331 -20.73828125 122.2265625 C-22.29939487 124.51354423 -23.44641411 126.90573378 -24.65234375 129.3984375 C-27.56584654 135.39859699 -30.88201346 141.08862209 -34.29174805 146.81396484 C-36.59187623 150.68053353 -38.83961786 154.55675168 -40.96484375 158.5234375 C-43.93206929 164.05943259 -47.13517809 169.44916413 -50.36328125 174.8359375 C-52.79820204 178.92752909 -54.99937085 183.03283509 -56.96826172 187.37036133 C-57.96484375 189.0234375 -57.96484375 189.0234375 -60.96484375 191.0234375 C-59.18138533 194.00759172 -57.38672645 196.98485053 -55.58984375 199.9609375 C-55.08195313 200.81107422 -54.5740625 201.66121094 -54.05078125 202.53710938 C-53.5609375 203.34599609 -53.07109375 204.15488281 -52.56640625 204.98828125 C-52.11604004 205.737146 -51.66567383 206.48601074 -51.20166016 207.25756836 C-50.07243101 209.16799661 -50.07243101 209.16799661 -47.96484375 210.0234375 C-47.64322266 209.45536377 -47.32160156 208.88729004 -46.99023438 208.30200195 C-41.36574727 198.37991727 -35.70992259 188.50738029 -29.67578125 178.828125 C-27.58772062 175.40523108 -25.68689325 171.90399138 -23.79296875 168.37109375 C-21.24244985 163.70059226 -18.60448388 159.08151857 -15.96484375 154.4609375 C-15.46629883 153.58630859 -14.96775391 152.71167969 -14.45410156 151.81054688 C-11.90503766 147.35428172 -9.32965047 142.91413338 -6.71484375 138.49609375 C-6.2353125 137.685354 -5.75578125 136.87461426 -5.26171875 136.03930664 C-3.96484375 134.0234375 -3.96484375 134.0234375 -1.96484375 132.0234375 C0.4921875 132.12109375 0.4921875 132.12109375 3.03515625 133.0234375 C4.484375 134.89453125 4.484375 134.89453125 5.72265625 137.4609375 C6.47095703 138.94207031 6.47095703 138.94207031 7.234375 140.453125 C7.82863281 141.63132813 8.42289063 142.80953125 9.03515625 144.0234375 C10.67577925 147.05883449 12.35424399 150.07270507 14.03515625 153.0859375 C14.47013428 153.8696875 14.9051123 154.6534375 15.35327148 155.4609375 C18.03480841 160.27949052 20.80171959 165.03160163 23.67578125 169.73828125 C25.73253404 173.19575361 27.6152263 176.74419741 29.5234375 180.28515625 C31.46298353 183.79839079 33.53538988 187.22078628 35.640625 190.63671875 C36.63153665 192.33264877 37.55458493 194.06903006 38.4284668 195.828125 C39.91650687 198.7874729 41.49170507 201.66082075 43.13671875 204.53515625 C43.7090625 205.53998047 44.28140625 206.54480469 44.87109375 207.58007812 C46.07077333 209.6795174 47.27130408 211.7784705 48.47265625 213.87695312 C49.04242188 214.87791016 49.6121875 215.87886719 50.19921875 216.91015625 C50.7195166 217.81983154 51.23981445 218.72950684 51.77587891 219.66674805 C53.03515625 222.0234375 53.03515625 222.0234375 54.03515625 225.0234375 C53.70515625 226.0134375 53.37515625 227.0034375 53.03515625 228.0234375 C34.58978469 228.11684123 16.14446106 228.18739723 -2.30109787 228.23068619 C-10.86552583 228.25131945 -19.42980692 228.27945454 -27.99414062 228.32519531 C-35.45803145 228.36503982 -42.92181592 228.39086476 -50.38581014 228.39979148 C-54.33870815 228.40501032 -58.2913019 228.41729199 -62.24410248 228.44635773 C-65.96398444 228.47348939 -69.68343654 228.48188722 -73.40340805 228.47586823 C-75.42088042 228.47749495 -77.43830586 228.49902952 -79.45565796 228.52111816 C-80.65596649 228.51561951 -81.85627502 228.51012085 -83.09295654 228.50445557 C-84.65816103 228.50998632 -84.65816103 228.50998632 -86.25498581 228.51562881 C-89.68141955 227.89328589 -90.79434468 226.68763742 -92.96484375 224.0234375 C-94.27170406 222.01769103 -95.51369366 219.96922026 -96.71484375 217.8984375 C-97.50217835 216.55757765 -98.29139714 215.2178232 -99.08203125 213.87890625 C-99.75250488 212.74267822 -99.75250488 212.74267822 -100.43652344 211.58349609 C-103.51568601 206.42565285 -106.68504034 201.32272336 -109.83984375 196.2109375 C-111.23863556 193.94162444 -112.63685749 191.6719607 -114.03515625 189.40234375 C-114.70708008 188.31195801 -115.37900391 187.22157227 -116.07128906 186.09814453 C-118.624854 181.95172926 -121.17339701 177.80229101 -123.71484375 173.6484375 C-124.35583008 172.60115479 -124.35583008 172.60115479 -125.00976562 171.53271484 C-127.40506583 167.60909715 -129.77580771 163.67173854 -132.12890625 159.72265625 C-132.66418945 158.82530762 -133.19947266 157.92795898 -133.75097656 157.00341797 C-134.77663137 155.28149043 -135.79961518 153.55796782 -136.81933594 151.83251953 C-138.98804144 148.18990027 -141.18992786 144.63118229 -143.67578125 141.1953125 C-145.40505761 138.79911386 -146.86552891 136.56854197 -148.21484375 133.9609375 C-152.3178391 126.37105154 -157.18227542 119.19728999 -161.96484375 112.0234375 C-161.96907569 112.6091194 -161.97330763 113.19480129 -161.97766781 113.79823112 C-162.08088173 128.03589191 -162.18950549 142.27350276 -162.30418301 156.51107597 C-162.35950866 163.39620124 -162.41298957 170.28133169 -162.4621582 177.16650391 C-162.50957769 183.80601953 -162.56209758 190.44548195 -162.6177845 197.08493423 C-162.63822866 199.62315685 -162.65693826 202.16139403 -162.67391777 204.69964218 C-162.69791619 208.24366288 -162.72797697 211.78758256 -162.75952148 215.33154297 C-162.76527695 216.39033661 -162.77103241 217.44913025 -162.77696228 218.54000854 C-162.79164551 219.98295288 -162.79164551 219.98295288 -162.80662537 221.45504761 C-162.81307792 222.29387922 -162.81953047 223.13271084 -162.82617855 223.99696159 C-162.96484375 226.0234375 -162.96484375 226.0234375 -163.96484375 228.0234375 C-169.92797541 228.04808324 -175.8910777 228.0662715 -181.85424805 228.07836914 C-183.88452673 228.08341028 -185.91480177 228.09024307 -187.94506836 228.09887695 C-190.85661722 228.11095217 -193.76811825 228.11666784 -196.6796875 228.12109375 C-198.04999367 228.12883568 -198.04999367 228.12883568 -199.44798279 228.13673401 C-201.62059802 228.13692918 -203.79311671 228.08555555 -205.96484375 228.0234375 C-207.81891703 226.16936422 -207.09514652 223.10808542 -207.09855652 220.63050842 C-207.10082208 219.95475641 -207.10308763 219.2790044 -207.10542184 218.58277506 C-207.11178976 216.30134149 -207.11093067 214.0199669 -207.11010742 211.73852539 C-207.1130974 210.109303 -207.11649955 208.48008133 -207.12028503 206.8508606 C-207.12915115 202.41030358 -207.13146439 197.96976581 -207.13210082 193.52920079 C-207.13304881 189.8219814 -207.1367263 186.11476651 -207.14027292 182.40754884 C-207.14842931 173.65410252 -207.15085628 164.90066648 -207.15014648 156.1472168 C-207.1495471 147.12750662 -207.16006825 138.10785652 -207.17589015 129.08816153 C-207.18899094 121.34282337 -207.19432923 113.59750477 -207.19369107 105.85215563 C-207.1934366 101.22737963 -207.19625926 96.60265686 -207.20686913 91.97789192 C-207.21659145 87.62031534 -207.21660106 83.26284235 -207.20935249 78.90526199 C-207.20831139 77.31141571 -207.21064116 75.71756285 -207.21671295 74.1237278 C-207.27111475 58.84482303 -205.60794805 43.58869461 -195.96484375 31.0234375 C-195.46597656 30.32089844 -194.96710938 29.61835937 -194.453125 28.89453125 C-191.38199491 24.61874481 -191.38199491 24.61874481 -189.96484375 23.0234375 C-189.30484375 23.0234375 -188.64484375 23.0234375 -187.96484375 23.0234375 C-187.63484375 22.0334375 -187.30484375 21.0434375 -186.96484375 20.0234375 C-183.83508076 17.40288198 -180.38764009 15.24164457 -176.96484375 13.0234375 C-176.25972656 12.55292969 -175.55460937 12.08242188 -174.828125 11.59765625 C-161.81927351 3.59411524 -147.36655819 3.38062883 -132.57666016 3.50195312 C-129.46958388 3.52340477 -126.36481909 3.50204985 -123.2578125 3.4765625 C-109.00779786 3.45502961 -95.88009497 4.37818857 -83.40234375 11.9609375 C-82.30792969 12.60933594 -81.21351563 13.25773437 -80.0859375 13.92578125 C-65.81259169 23.51875584 -55.03461406 38.94478168 -51.625 55.9140625 C-50.56164457 62.7779288 -50.52490324 69.71759326 -50.46484375 76.6484375 C-50.43692749 78.59532471 -50.43692749 78.59532471 -50.40844727 80.58154297 C-50.53882859 100.57418998 -58.21228052 117.1242291 -72.15625 131.2421875 C-77.59131148 136.29805865 -83.60765065 140.22100424 -89.96484375 144.0234375 C-88.31484375 146.3334375 -86.66484375 148.6434375 -84.96484375 151.0234375 C-85.62484375 149.0434375 -86.28484375 147.0634375 -86.96484375 145.0234375 C-82.20308474 139.95446823 -76.64097569 134.24881481 -69.96484375 132.0234375 C-68.75602279 130.02327284 -68.75602279 130.02327284 -67.96484375 128.0234375 C-67.30484375 128.0234375 -66.64484375 128.0234375 -65.96484375 128.0234375 C-65.69414062 127.28609375 -65.4234375 126.54875 -65.14453125 125.7890625 C-64.01842268 123.14904637 -62.7529184 121.10001861 -61.08984375 118.7734375 C-58.09812859 114.37685367 -55.89916908 109.96767712 -53.96484375 105.0234375 C-53.68769531 104.35054688 -53.41054687 103.67765625 -53.125 102.984375 C-51.32769401 98.20944267 -50.64037339 93.65794667 -50.08984375 88.5859375 C-49.24535152 81.74146419 -47.56059743 76.85962232 -43.96484375 71.0234375 C-43.42085937 70.13527344 -42.876875 69.24710937 -42.31640625 68.33203125 C-41.02421508 66.24108056 -39.72551592 64.15414387 -38.421875 62.0703125 C-35.19349226 56.82264833 -32.18207603 51.44982602 -29.15234375 46.0859375 C-28.58902344 45.09053955 -28.02570313 44.0951416 -27.4453125 43.06958008 C-24.83746843 38.43807095 -22.27387968 33.81164885 -19.96484375 29.0234375 C-19.30484375 29.0234375 -18.64484375 29.0234375 -17.96484375 29.0234375 C-17.85382324 28.3010791 -17.74280273 27.5787207 -17.62841797 26.83447266 C-16.92292283 23.84585199 -15.87168379 21.70532519 -14.34765625 19.046875 C-13.82300781 18.1290625 -13.29835937 17.21125 -12.7578125 16.265625 C-12.20738281 15.31945313 -11.65695313 14.37328125 -11.08984375 13.3984375 C-10.54714844 12.44453125 -10.00445312 11.490625 -9.4453125 10.5078125 C-3.41569125 0.04074383 -3.41569125 0.04074383 0 0 Z M-158.96484375 54.0234375 C-162.90997638 59.99464389 -163.51691019 65.17870597 -163.35546875 72.2109375 C-163.34980896 73.15404785 -163.34414917 74.0971582 -163.33831787 75.06884766 C-163.3160896 78.05424728 -163.26591935 81.03840624 -163.21484375 84.0234375 C-163.19476121 86.05857631 -163.17651353 88.09373409 -163.16015625 90.12890625 C-163.11626932 95.09422141 -163.04733689 100.05861977 -162.96484375 105.0234375 C-156.88167614 105.04831518 -150.79853872 105.06638111 -144.71533203 105.07836914 C-142.64957157 105.08337137 -140.5838146 105.09017526 -138.51806641 105.09887695 C-135.53417087 105.11112375 -132.5503225 105.11670706 -129.56640625 105.12109375 C-128.65557281 105.12625504 -127.74473938 105.13141632 -126.80630493 105.13673401 C-112.03290932 105.30935992 -112.03290932 105.30935992 -99.77734375 97.8984375 C-92.8353226 86.88695568 -92.02173339 74.35691705 -94.66015625 61.68359375 C-96.77839418 55.76498777 -99.9414232 51.96552677 -105.71435547 49.17895508 C-112.47047568 46.59884889 -119.19813766 46.56605462 -126.33911133 46.63232422 C-128.39537158 46.64838305 -130.4496593 46.63242239 -132.50585938 46.61328125 C-141.75655051 46.5988423 -152.27221096 46.74027829 -158.96484375 54.0234375 Z M79.03515625 132.0234375 C80.03515625 134.0234375 80.03515625 134.0234375 80.03515625 134.0234375 Z M80.03515625 134.0234375 C81.03515625 136.0234375 81.03515625 136.0234375 81.03515625 136.0234375 Z M-83.96484375 153.0234375 C-83.30484375 154.6734375 -82.64484375 156.3234375 -81.96484375 158.0234375 C-81.63484375 157.3634375 -81.30484375 156.7034375 -80.96484375 156.0234375 C-81.29484375 155.0334375 -81.62484375 154.0434375 -81.96484375 153.0234375 C-82.62484375 153.0234375 -83.28484375 153.0234375 -83.96484375 153.0234375 Z M-80.96484375 158.0234375 C-80.63484375 159.0134375 -80.30484375 160.0034375 -79.96484375 161.0234375 C-79.96484375 160.0334375 -79.96484375 159.0434375 -79.96484375 158.0234375 C-80.29484375 158.0234375 -80.62484375 158.0234375 -80.96484375 158.0234375 Z M-78.96484375 161.0234375 C-77.96484375 163.0234375 -77.96484375 163.0234375 -77.96484375 163.0234375 Z M-77.96484375 163.0234375 C-77.30484375 164.6734375 -76.64484375 166.3234375 -75.96484375 168.0234375 C-75.63484375 167.3634375 -75.30484375 166.7034375 -74.96484375 166.0234375 C-75.95484375 165.0334375 -76.94484375 164.0434375 -77.96484375 163.0234375 Z M-74.96484375 168.0234375 C-74.30484375 169.6734375 -73.64484375 171.3234375 -72.96484375 173.0234375 C-72.63484375 172.3634375 -72.30484375 171.7034375 -71.96484375 171.0234375 C-72.95484375 170.0334375 -73.94484375 169.0434375 -74.96484375 168.0234375 Z M-70.96484375 174.0234375 C-69.96484375 177.0234375 -69.96484375 177.0234375 -69.96484375 177.0234375 Z " fill="#37393E" transform="translate(211.96484375,17.9765625)"/>
<path d="M0 0 C3.10707628 0.02145165 6.21184106 0.00009673 9.31884766 -0.02539062 C23.5688623 -0.04692352 36.69656519 0.87623544 49.17431641 8.45898438 C50.26873047 9.10738281 51.36314453 9.75578125 52.49072266 10.42382812 C63.67464839 17.94043403 74.69186504 30.0694351 78.10009766 43.43652344 C79.13024111 48.76153267 79.41096155 54.11101731 79.61181641 59.52148438 C79.65419434 60.54628906 79.69657227 61.57109375 79.74023438 62.62695312 C80.53682729 84.97121919 77.78828649 104.62566819 62.77587891 122.27539062 C56.76775159 128.51126284 49.63119737 134.11037754 41.61181641 137.52148438 C40.62181641 137.52148438 39.63181641 137.52148438 38.61181641 137.52148438 C39.12228516 138.37226563 39.63275391 139.22304687 40.15869141 140.09960938 C50.45947266 157.26757812 50.45947266 157.26757812 51.92724609 159.71411133 C52.93672534 161.39641211 53.94649741 163.07853722 54.95654297 164.76049805 C57.51897452 169.02839169 60.07664206 173.29898484 62.62353516 177.57617188 C69.43995626 189.00798226 76.44825878 200.30395201 83.61181641 211.52148438 C86.00594386 208.46751535 87.97446644 205.30010929 89.90478516 201.93554688 C90.53118896 200.84661133 91.15759277 199.75767578 91.80297852 198.63574219 C92.46849461 197.47269638 93.13393925 196.30960968 93.79931641 195.14648438 C94.48212356 193.95723219 95.1651484 192.76810497 95.84838867 191.57910156 C97.77279625 188.22842935 99.69268991 184.87518443 101.61181641 181.52148438 C102.43993168 180.0761663 103.26805477 178.63085271 104.09619141 177.18554688 C106.52842981 172.93399414 108.95437573 168.67892983 111.37353516 164.41992188 C118.02601299 152.73275956 124.82433982 141.13058746 131.61181641 129.52148438 C134.41102711 132.14279646 136.39103707 134.55911843 138.17041016 137.95117188 C138.86336182 139.25175537 138.86336182 139.25175537 139.5703125 140.57861328 C140.05838379 141.50851074 140.54645508 142.4384082 141.04931641 143.39648438 C145.82105621 152.33400513 150.81878386 161.09510712 156.07055664 169.75927734 C158.75630364 174.22768303 161.24975895 178.72004756 163.54931641 183.40039062 C166.65755555 189.72240494 170.14945115 195.77403727 173.73681641 201.83398438 C175.51374118 204.85400195 177.29003787 207.87438755 179.06591797 210.89501953 C180.01732232 212.5114453 180.9717397 214.12610755 181.93115234 215.73779297 C184.61181641 220.29869414 184.61181641 220.29869414 184.61181641 222.52148438 C166.33158465 222.75514859 148.0517407 222.93145651 129.77033806 223.03960609 C121.28176818 223.09115838 112.79412643 223.16143062 104.30615234 223.27587891 C96.90742663 223.37559261 89.50937302 223.44007519 82.10999405 223.46236932 C78.19209022 223.47540143 74.27610893 223.5059894 70.35882187 223.57878494 C66.66952266 223.64678681 62.98293242 223.66758034 59.29306602 223.65256119 C57.2971523 223.65661475 55.30153254 223.71037555 53.30638123 223.76568604 C49.79800887 223.72531555 46.95103629 223.60252101 43.61181641 222.52148438 C40.71097634 219.52276034 39.22950373 216.32592268 37.61181641 212.52148438 C36.7325083 211.02127458 35.83249663 209.53275167 34.90087891 208.06445312 C34.46533691 207.35184326 34.02979492 206.6392334 33.58105469 205.9050293 C33.13745605 205.18033447 32.69385742 204.45563965 32.23681641 203.70898438 C31.75841309 202.92692627 31.28000977 202.14486816 30.78710938 201.33911133 C27.13701172 195.37451159 23.48211084 189.41291652 19.80908203 183.46240234 C18.90597601 181.99835405 18.00379078 180.53373771 17.10205078 179.06884766 C15.39862779 176.30203634 13.69287694 173.53666998 11.98681641 170.77148438 C11.17881592 169.45796997 11.17881592 169.45796997 10.35449219 168.11791992 C7.77030661 163.93454691 5.14546609 159.79444158 2.39697266 155.71679688 C0.30471332 152.60445828 -1.59643716 149.4788316 -3.32568359 146.14648438 C-5.75759736 141.60691202 -8.3959296 137.27957539 -11.18896484 132.95507812 C-14.22502241 128.23968741 -17.17846251 123.47249625 -20.13818359 118.70898438 C-20.70545166 117.80100098 -21.27271973 116.89301758 -21.85717773 115.95751953 C-22.39850342 115.08530762 -22.9398291 114.2130957 -23.49755859 113.31445312 C-23.98192383 112.53610107 -24.46628906 111.75774902 -24.96533203 110.95581055 C-26.57358329 108.20428802 -27.98948398 105.38436675 -29.38818359 102.52148438 C-28.49734825 102.51268501 -28.49734825 102.51268501 -27.58851624 102.50370789 C-21.37454247 102.43948336 -15.16107276 102.35499049 -8.94750977 102.2590332 C-6.63247345 102.22589891 -4.31735859 102.19783165 -2.00219727 102.17504883 C1.33692719 102.14129128 4.67533922 102.08896406 8.01416016 102.03320312 C9.03952377 102.0268132 10.06488739 102.02042328 11.12132263 102.01383972 C18.56035978 101.86363681 24.85187546 100.65781446 31.36181641 96.95898438 C36.63080381 91.25091469 39.42432768 84.27548253 39.61181641 76.52148438 C39.65048828 75.49667969 39.68916016 74.471875 39.72900391 73.41601562 C39.93071414 63.67789378 39.15100776 55.22168098 32.61181641 47.52148438 C26.90282052 43.16759081 21.44782159 42.36357378 14.47119141 42.35351562 C13.6707843 42.35018723 12.8703772 42.34685883 12.04571533 42.34342957 C10.35112075 42.3383676 8.6565162 42.33602101 6.96191406 42.33618164 C4.38540912 42.33400431 1.80933884 42.31586648 -0.76708984 42.296875 C-2.41682797 42.29393899 -4.06656812 42.29195558 -5.71630859 42.29101562 C-6.48009827 42.28383011 -7.24388794 42.27664459 -8.03082275 42.26924133 C-15.50215324 42.30070575 -21.26156669 43.65397022 -26.88037109 48.80664062 C-31.66779262 54.25140241 -32.50834927 61.13473122 -32.54640198 68.11468506 C-32.55133995 68.77555469 -32.55627793 69.43642432 -32.56136554 70.1173203 C-32.57671297 72.32983865 -32.58509366 74.54232804 -32.59350586 76.75488281 C-32.60308655 78.34166213 -32.61309675 79.9284389 -32.62350464 81.51521301 C-32.65053905 85.82267375 -32.67155655 90.13014542 -32.69150662 94.437644 C-32.71337519 98.93934561 -32.74075963 103.44101355 -32.76756287 107.94268799 C-32.81747796 116.46715968 -32.86242119 124.99165008 -32.90558523 133.51615834 C-32.9549677 143.22104635 -33.00988209 152.92590057 -33.06526482 162.6307559 C-33.17906672 182.5943021 -33.28517939 202.55787935 -33.38818359 222.52148438 C-46.25818359 222.52148438 -59.12818359 222.52148438 -72.38818359 222.52148438 C-72.52390609 200.35452054 -72.634314 178.18789592 -72.69905663 156.0206213 C-72.72992394 145.72673039 -72.77196744 135.43311701 -72.84082031 125.1394043 C-72.90084132 116.16176089 -72.93938445 107.18431858 -72.95271456 98.20648009 C-72.96050009 93.45777793 -72.97864711 88.70965082 -73.02256393 83.96113396 C-73.06366484 79.48026043 -73.07577806 75.00019201 -73.06682968 70.51914787 C-73.06846375 68.885433 -73.08017407 67.25168771 -73.10341644 65.61813736 C-73.23819976 55.64553608 -72.04186063 47.98633373 -67.87204933 38.87137699 C-66.3653538 35.4699451 -65.39397718 32.09695309 -64.38818359 28.52148438 C-62.73193359 25.86914062 -62.73193359 25.86914062 -60.88818359 23.58398438 C-60.27974609 22.81183594 -59.67130859 22.0396875 -59.04443359 21.24414062 C-58.49787109 20.67566406 -57.95130859 20.1071875 -57.38818359 19.52148438 C-56.72818359 19.52148438 -56.06818359 19.52148438 -55.38818359 19.52148438 C-55.05818359 18.53148438 -54.72818359 17.54148437 -54.38818359 16.52148438 C-51.2584206 13.90092885 -47.81097994 11.73969145 -44.38818359 9.52148438 C-43.68306641 9.05097656 -42.97794922 8.58046875 -42.25146484 8.09570312 C-29.24261336 0.09216211 -14.78989804 -0.12132429 0 0 Z " fill="#55A33E" transform="translate(79.38818359375,21.478515625)"/>
<path d="M0 0 C2.37890625 0.12890625 2.37890625 0.12890625 5 1 C6.58984375 3.15234375 6.58984375 3.15234375 7.9375 5.9375 C9.8443561 9.71707412 11.78250112 13.39294568 14 17 C15.95985015 20.23124012 17.83303694 23.48531713 19.625 26.8125 C24.1196895 35.13950371 28.87667177 43.31994166 33.58398438 51.52783203 C34.7939413 53.64024992 36.00020816 55.75466238 37.203125 57.87109375 C41.20952509 64.91486627 45.29726269 71.90484298 49.42138672 78.88012695 C52.26651324 83.7086721 54.98917439 88.58938939 57.640625 93.52734375 C59.49443418 96.89935872 61.497473 100.17338902 63.49609375 103.4609375 C65.08781807 106.14826428 66.58154802 108.8752017 68.0625 111.625 C70.14361656 115.48452525 72.35060424 119.20175179 74.7109375 122.89453125 C76.80484754 126.31458432 78.6778111 129.85234451 80.5703125 133.38671875 C81.54756676 135.17301138 82.58801256 136.92577791 83.6796875 138.64453125 C85 141 85 141 85 144 C85.66 144 86.32 144 87 144 C87.3309668 144.58676514 87.66193359 145.17353027 88.00292969 145.77807617 C94.15091869 156.67457217 100.30707832 167.56646494 106.5 178.4375 C106.97920898 179.28143311 107.45841797 180.12536621 107.95214844 180.99487305 C110.50932039 185.47620473 113.1551727 189.87970502 115.91015625 194.24194336 C117.28906809 196.4663036 118.53036367 198.74744957 119.75 201.0625 C121.53142449 204.39684165 123.38431728 207.65575163 125.3828125 210.86328125 C125.7943457 211.5277124 126.20587891 212.19214355 126.62988281 212.87670898 C127.44537593 214.18549548 128.26994962 215.48867767 129.10449219 216.78540039 C131.2901289 220.30446311 132.63245399 222.81963338 132 227 C130.43122369 228.56877631 128.84817365 228.18182355 126.66723633 228.24047852 C125.74570267 228.26622452 124.82416901 228.29197052 123.87471008 228.3184967 C119.64113533 228.40255038 115.40774312 228.46856154 111.17358398 228.51489258 C108.94152411 228.54650816 106.70963157 228.59423664 104.47827148 228.65844727 C101.26221472 228.74977593 98.04918969 228.78852156 94.83203125 228.81640625 C93.83806839 228.85455948 92.84410553 228.89271271 91.82002258 228.93202209 C85.05116375 228.91307637 85.05116375 228.91307637 82.10888672 226.35731506 C80.53747402 224.31015287 79.24626776 222.25776339 78 220 C77.41395996 219.05294189 76.82791992 218.10588379 76.22412109 217.13012695 C75.74539551 216.25831787 75.26666992 215.38650879 74.7734375 214.48828125 C74.22308838 213.49449463 73.67273926 212.50070801 73.10571289 211.47680664 C72.24901001 209.91047485 72.24901001 209.91047485 71.375 208.3125 C70.13225645 206.06729524 68.8887554 203.8225096 67.64453125 201.578125 C67.02916504 200.46501953 66.41379883 199.35191406 65.77978516 198.20507812 C63.24309252 193.63694356 60.65992974 189.09630787 58.0625 184.5625 C57.58055176 183.72058105 57.09860352 182.87866211 56.60205078 182.01123047 C52.03649883 174.04659589 47.4427999 166.09816845 42.85009766 158.14916992 C38.52590465 150.66000998 34.22915439 143.15570207 29.94580078 135.64315796 C24.41757452 125.94885102 18.86268582 116.27071347 13.25 106.625 C12.67757568 105.63870605 12.10515137 104.65241211 11.51538086 103.63623047 C7.50617247 96.6568299 7.50617247 96.6568299 3 90 C2.34 90 1.68 90 1 90 C-0.62409798 92.33301085 -0.62409798 92.33301085 -2.25 95.3125 C-2.88035156 96.42367187 -3.51070313 97.53484375 -4.16015625 98.6796875 C-6.17121934 102.30899457 -8.15443348 105.95226595 -10.12890625 109.6015625 C-12.7507005 114.36348525 -15.4346263 119.08905752 -18.125 123.8125 C-18.89783325 125.17459595 -18.89783325 125.17459595 -19.6862793 126.56420898 C-22.30990394 131.15905395 -24.99199943 135.64631496 -28 140 C-29.65 139.67 -31.3 139.34 -33 139 C-33 138.01 -33 137.02 -33 136 C-33.66 136 -34.32 136 -35 136 C-35.53367187 134.97003906 -36.06734375 133.94007813 -36.6171875 132.87890625 C-37.36874522 131.43955728 -38.1214406 130.00080202 -38.875 128.5625 C-39.27267578 127.80275879 -39.67035156 127.04301758 -40.08007812 126.26025391 C-42.21806383 122.21952742 -44.4203913 118.24257332 -46.7890625 114.33203125 C-47.24168457 113.58429443 -47.69430664 112.83655762 -48.16064453 112.06616211 C-49.03399962 110.63736846 -49.91736217 109.21462961 -50.81201172 107.79907227 C-53.40907069 103.55089951 -54.89183753 100.10767238 -55 95 C-54.1015625 92.4375 -54.1015625 92.4375 -52.625 90 C-51.78388672 88.57494141 -51.78388672 88.57494141 -50.92578125 87.12109375 C-50.29027344 86.09113281 -49.65476562 85.06117187 -49 84 C-47.97061491 82.29763201 -46.94133722 80.59519701 -45.91479492 78.89111328 C-45.17122341 77.65759155 -44.42523515 76.42552384 -43.67700195 75.19482422 C-39.90823162 68.95497257 -36.42367103 62.56577512 -32.98168945 56.14086914 C-30.34255741 51.26175589 -27.50728808 46.62923137 -24.34545898 42.06982422 C-22.96295088 39.94300445 -21.84292196 37.78735369 -20.75 35.5 C-17.34400811 28.44630067 -13.23294502 21.79540721 -9.22802734 15.07128906 C-6.87841536 11.1082457 -4.58121455 7.11476213 -2.27734375 3.125 C-1 1 -1 1 0 0 Z " fill="#37383D" transform="translate(328,18)"/>
<path d="M0 0 C2.50652351 2.29888251 4.1557726 4.69766686 5.875 7.625 C6.4009375 8.51832031 6.926875 9.41164062 7.46875 10.33203125 C8.79682631 12.64600095 10.09445334 14.97204141 11.375 17.3125 C13.44146777 21.07998303 15.6675028 24.72663638 17.9375 28.375 C20.9915808 33.29705517 23.83666717 38.28145138 26.5703125 43.38671875 C28.42037048 46.76838211 30.42102889 50.04815243 32.42382812 53.34082031 C33.92466218 55.8728966 35.33579747 58.43349563 36.7265625 61.02734375 C40.73167207 68.40719778 45.02804591 75.61234487 49.31640625 82.83007812 C49.92097656 83.85681641 50.52554688 84.88355469 51.1484375 85.94140625 C51.69677246 86.86638916 52.24510742 87.79137207 52.81005859 88.74438477 C54 91 54 91 54 93 C19.02 93 -15.96 93 -52 93 C-50.46766958 88.40300874 -49.13420069 85.19887336 -46.75 81.125 C-46.41355469 80.54621094 -46.07710938 79.96742188 -45.73046875 79.37109375 C-44.94980546 78.03009373 -44.16639223 76.6906924 -43.38085938 75.35253906 C-41.79574305 72.65201203 -40.21793426 69.94728172 -38.640625 67.2421875 C-36.81223673 64.10692279 -34.98355285 60.97183502 -33.15332031 57.83764648 C-27.18840565 47.62116084 -21.27233074 37.38903211 -15.6328125 26.98828125 C-10.64625497 17.8621652 -5.64419282 8.73939534 0 0 Z " fill="#55A33E" transform="translate(330,151)"/>
<path d="M0 0 C2.79921071 2.62131208 4.77922066 5.03763406 6.55859375 8.4296875 C7.02056152 9.29674316 7.4825293 10.16379883 7.95849609 11.05712891 C8.44656738 11.98702637 8.93463867 12.91692383 9.4375 13.875 C14.2092398 22.81252075 19.20696746 31.57362274 24.45874023 40.23779297 C27.14448723 44.70619866 29.63794254 49.19856318 31.9375 53.87890625 C35.04573914 60.20092057 38.53763475 66.25255289 42.125 72.3125 C43.90192477 75.33251758 45.67822146 78.35290317 47.45410156 81.37353516 C48.40550591 82.98996093 49.35992329 84.60462318 50.31933594 86.21630859 C53 90.77720976 53 90.77720976 53 93 C40.56976508 93.18531657 28.13985841 93.32748511 15.70852375 93.41449738 C9.93612714 93.45625847 4.16467515 93.51290473 -1.60717773 93.60351562 C-7.17692663 93.69040705 -12.7457668 93.73826719 -18.31614113 93.75901794 C-20.44175338 93.77380611 -22.56731555 93.80268517 -24.69254112 93.84584045 C-27.66941323 93.90388811 -30.64252653 93.91191487 -33.61987305 93.90820312 C-34.93941483 93.95134644 -34.93941483 93.95134644 -36.28561401 93.99536133 C-38.77093295 93.96181019 -40.66295184 93.85257427 -43 93 C-45.31511852 90.61311208 -46.84564095 88.11625698 -48 85 C-47.60546875 82.5390625 -47.60546875 82.5390625 -46 80 C-45.2829943 78.65617799 -44.57130027 77.30951595 -43.86328125 75.9609375 C-43.01706625 74.43004853 -42.16661306 72.90149656 -41.3125 71.375 C-40.86551758 70.57247803 -40.41853516 69.76995605 -39.95800781 68.94311523 C-36.9989449 63.67128868 -33.87082029 58.55027068 -30.5703125 53.484375 C-28.4224809 50.08631307 -26.53265741 46.57232219 -24.6328125 43.03125 C-16.79426602 28.47930726 -8.35583674 14.25796122 0 0 Z " fill="#2E82B6" transform="translate(211,151)"/>
<path d="M0 0 C1.17673248 3.53019745 0.51067002 4.4708523 -1.00712764 7.70582956 C-5.36699432 17.03994344 -5.85636666 25.32822403 -5.77294922 35.49194336 C-5.78114177 37.18872981 -5.7919566 38.88550528 -5.80516052 40.58226013 C-5.83333511 45.1393097 -5.8253318 49.69562873 -5.81029272 54.25271297 C-5.8008478 59.03334176 -5.82542281 63.81379998 -5.84622192 68.59437561 C-5.88042864 77.62501502 -5.88451958 86.65540072 -5.87749684 95.68609196 C-5.87098276 105.97652586 -5.89848911 116.26678364 -5.92869925 126.55716503 C-5.99002972 147.70484997 -6.00464808 168.85221953 -6 190 C6.87 190 19.74 190 33 190 C32.98428955 185.16996338 32.9685791 180.33992676 32.95239258 175.36352539 C32.90268573 159.40601354 32.86939369 143.44849864 32.84456348 127.4909296 C32.829108 117.81577159 32.8080437 108.14068703 32.77368164 98.46557617 C32.74373891 90.03075101 32.72441541 81.59597907 32.71773452 73.16110224 C32.71383051 68.69670583 32.70468308 64.23246162 32.68280983 59.76811409 C32.66236762 55.56155351 32.65618176 51.35520707 32.66067696 47.14860153 C32.6598552 45.6091527 32.65393572 44.06969631 32.64238358 42.5302906 C32.56631431 31.86567046 32.80687492 22.59766676 40.45703125 14.4375 C46.34186328 8.95492231 52.56015033 8.8370803 60.265625 8.76171875 C61.45487579 8.74961113 61.45487579 8.74961113 62.66815186 8.73725891 C64.34238532 8.72346842 66.0166463 8.7127239 67.69091797 8.70483398 C69.389896 8.69332593 71.0888382 8.67289256 72.78759766 8.64331055 C92.79418809 8.29542054 92.79418809 8.29542054 99.52392578 14.37719727 C107.3524521 23.0559123 107.47377827 32.92383224 107 44 C106.2503201 53.35256398 103.16238501 59.72807855 96.625 66.4375 C89.88249086 70.4508983 82.3392449 70.32679157 74.71875 70.4140625 C73.66465942 70.43342865 72.61056885 70.4527948 71.52453613 70.4727478 C68.18310443 70.53216164 64.84163756 70.57877562 61.5 70.625 C59.22394395 70.66321494 56.94790181 70.70226869 54.671875 70.7421875 C49.11470759 70.83783146 43.5574552 70.92298895 38 71 C38.31162079 71.50992493 38.62324158 72.01984985 38.94430542 72.54522705 C41.35984294 76.4979248 43.77538045 80.45062256 46.19091797 84.40332031 C46.6677301 85.18353546 47.14454224 85.96375061 47.63580322 86.76760864 C48.4950582 88.17370594 49.35424011 89.57984789 50.21331787 90.98605347 C53.56581505 96.47345133 56.945813 101.93491037 60.45336914 107.32446289 C64.09999323 112.92851637 67.47916528 118.59653655 70.6171875 124.50390625 C72.33998748 127.61370622 74.30313123 130.50523104 76.30859375 133.4375 C78.43003006 136.65150051 80.40432997 139.94205981 82.375 143.25 C88.97093618 154.31712716 95.76895892 165.25610334 102.60546875 176.17578125 C102.9926709 176.79662598 103.37987305 177.4174707 103.77880859 178.05712891 C104.64798109 179.43995072 105.52698345 180.81661486 106.41259766 182.18896484 C106.87069824 182.90391113 107.32879883 183.61885742 107.80078125 184.35546875 C108.22141846 185.00539795 108.64205566 185.65532715 109.07543945 186.32495117 C110 188 110 188 110 190 C156.53 190 203.06 190 251 190 C241.17395924 172.39913383 241.17395924 172.39913383 231 155 C230.00887369 153.23799767 229.0297045 151.46908091 228.07421875 149.6875 C224.6963032 143.43445906 221.26066003 137.21455628 217.8125 131 C217.49006317 130.41882416 217.16762634 129.83764832 216.8354187 129.23886108 C211.01392491 118.75356814 205.06251265 108.34786463 199 98 C194.08059991 105.9012711 189.28414002 113.86467855 184.58154297 121.89672852 C182.33133633 125.73985147 180.06178058 129.56842937 177.75 133.375 C175.87835374 136.48234642 174.09802453 139.62042275 172.375 142.8125 C169.33388514 148.44419419 166.1737102 154.00485752 163 159.5625 C162.25242432 160.87408081 162.25242432 160.87408081 161.48974609 162.2121582 C158.07071189 168.18902446 154.56456341 174.10883215 151 180 C147.94282478 177.14306913 145.74377864 174.26245094 143.56640625 170.6953125 C142.92380859 169.64754639 142.28121094 168.59978027 141.61914062 167.52026367 C140.94044922 166.39982666 140.26175781 165.27938965 139.5625 164.125 C138.84992777 162.9572438 138.13703318 161.78968426 137.42382812 160.62231445 C131.80590781 151.40766204 126.31134442 142.12089389 120.84375 132.81640625 C116.81745457 125.97518419 112.68790036 119.19655032 108.40625 112.51171875 C105 107.18472222 105 107.18472222 105 105 C105.73863281 104.67128906 106.47726563 104.34257812 107.23828125 104.00390625 C124.20214584 96.05007393 135.61988582 83.6391392 142 66 C142.31839844 65.12214844 142.63679687 64.24429688 142.96484375 63.33984375 C146.63252258 50.78184664 146.75367994 34.73832446 144 22 C143.88321201 19.32321927 143.9545494 16.68158543 144 14 C146 15 146 15 146.61962891 16.74902344 C148.08118295 23.90723241 148.37237344 30.93356042 148.37060547 38.22998047 C148.37496283 40.23291408 148.41195211 42.23568962 148.44921875 44.23828125 C148.50877516 64.3881987 140.86298738 80.9889896 126.80859375 95.21875 C121.37353227 100.27462115 115.3571931 104.19756674 109 108 C109.33733154 108.52843506 109.67466309 109.05687012 110.0222168 109.60131836 C111.58000487 112.04500678 113.13376508 114.49123271 114.6875 116.9375 C115.21794922 117.76830078 115.74839844 118.59910156 116.29492188 119.45507812 C119.72892824 124.86943172 122.95426328 130.35800941 126 136 C126.99 135.34 127.98 134.68 129 134 C133 140.5 133 140.5 133 145 C133.61344757 146.68698082 134.27095914 148.35965807 135 150 C135.99 149.67 136.98 149.34 138 149 C138.33 149.33 138.66 149.66 139 150 C139.33773437 149.4225 139.67546875 148.845 140.0234375 148.25 C140.46945313 147.5075 140.91546875 146.765 141.375 146 C141.81585938 145.2575 142.25671875 144.515 142.7109375 143.75 C143.13632813 143.1725 143.56171875 142.595 144 142 C144.66 142 145.32 142 146 142 C144.33766168 147.49850367 142.88568639 151.74287574 138 155 C139.78345842 157.98415422 141.5781173 160.96141303 143.375 163.9375 C143.88289062 164.78763672 144.39078125 165.63777344 144.9140625 166.51367188 C145.40390625 167.32255859 145.89375 168.13144531 146.3984375 168.96484375 C146.84880371 169.7137085 147.29916992 170.46257324 147.76318359 171.23413086 C148.89241274 173.14455911 148.89241274 173.14455911 151 174 C151.32162109 173.43192627 151.64324219 172.86385254 151.97460938 172.27856445 C157.59909648 162.35647977 163.25492116 152.48394279 169.2890625 142.8046875 C171.37712313 139.38179358 173.2779505 135.88055388 175.171875 132.34765625 C177.7223939 127.67715476 180.36035987 123.05808107 183 118.4375 C183.49854492 117.56287109 183.99708984 116.68824219 184.51074219 115.78710938 C187.05980609 111.33084422 189.63519328 106.89069588 192.25 102.47265625 C192.72953125 101.6619165 193.2090625 100.85117676 193.703125 100.01586914 C195 98 195 98 197 96 C199.45703125 96.09765625 199.45703125 96.09765625 202 97 C203.44921875 98.87109375 203.44921875 98.87109375 204.6875 101.4375 C205.43580078 102.91863281 205.43580078 102.91863281 206.19921875 104.4296875 C206.79347656 105.60789062 207.38773438 106.78609375 208 108 C209.640623 111.03539699 211.31908774 114.04926757 213 117.0625 C213.43497803 117.84625 213.86995605 118.63 214.31811523 119.4375 C216.99965216 124.25605302 219.76656334 129.00816413 222.640625 133.71484375 C224.69737779 137.17231611 226.58007005 140.72075991 228.48828125 144.26171875 C230.42782728 147.77495329 232.50023363 151.19734878 234.60546875 154.61328125 C235.5963804 156.30921127 236.51942868 158.04559256 237.39331055 159.8046875 C238.88135062 162.7640354 240.45654882 165.63738325 242.1015625 168.51171875 C242.67390625 169.51654297 243.24625 170.52136719 243.8359375 171.55664062 C245.03561708 173.6560799 246.23614783 175.755033 247.4375 177.85351562 C248.00726563 178.85447266 248.57703125 179.85542969 249.1640625 180.88671875 C249.68436035 181.79639404 250.2046582 182.70606934 250.74072266 183.64331055 C252 186 252 186 253 189 C252.67 189.99 252.34 190.98 252 192 C233.55462844 192.09340373 215.10930481 192.16395973 196.66374588 192.20724869 C188.09931792 192.22788195 179.53503683 192.25601704 170.97070312 192.30175781 C163.5068123 192.34160232 156.04302783 192.36742726 148.57903361 192.37635398 C144.6261356 192.38157282 140.67354185 192.39385449 136.72074127 192.42292023 C133.00085931 192.45005189 129.28140721 192.45844972 125.5614357 192.45243073 C123.54396333 192.45405745 121.52653789 192.47559202 119.50918579 192.49768066 C118.30887726 192.49218201 117.10856873 192.48668335 115.87188721 192.48101807 C114.30668272 192.48654882 114.30668272 192.48654882 112.70985794 192.49219131 C109.2834242 191.86984839 108.17049907 190.66419992 106 188 C104.69313969 185.99425353 103.45115009 183.94578276 102.25 181.875 C101.4626654 180.53414015 100.67344661 179.1943857 99.8828125 177.85546875 C99.21233887 176.71924072 99.21233887 176.71924072 98.52832031 175.56005859 C95.44915774 170.40221535 92.27980341 165.29928586 89.125 160.1875 C87.72620819 157.91818694 86.32798626 155.6485232 84.9296875 153.37890625 C84.25776367 152.28852051 83.58583984 151.19813477 82.89355469 150.07470703 C80.33998975 145.92829176 77.79144674 141.77885351 75.25 137.625 C74.60901367 136.57771729 74.60901367 136.57771729 73.95507812 135.50927734 C71.55977792 131.58565965 69.18903604 127.64830104 66.8359375 123.69921875 C66.3006543 122.80187012 65.76537109 121.90452148 65.21386719 120.97998047 C64.18821238 119.25805293 63.16522857 117.53453032 62.14550781 115.80908203 C59.97680231 112.16646277 57.77491589 108.60774479 55.2890625 105.171875 C53.55978614 102.77567636 52.09931484 100.54510447 50.75 97.9375 C46.64700465 90.34761404 41.78256833 83.17385249 37 76 C36.99576806 76.5856819 36.99153612 77.17136379 36.98717594 77.77479362 C36.88396202 92.01245441 36.77533826 106.25006526 36.66066074 120.48763847 C36.60533509 127.37276374 36.55185418 134.25789419 36.50268555 141.14306641 C36.45526606 147.78258203 36.40274617 154.42204445 36.34705925 161.06149673 C36.32661509 163.59971935 36.30790549 166.13795653 36.29092598 168.67620468 C36.26692756 172.22022538 36.23686678 175.76414506 36.20532227 179.30810547 C36.1995668 180.36689911 36.19381134 181.42569275 36.18788147 182.51657104 C36.17319824 183.95951538 36.17319824 183.95951538 36.15821838 185.43161011 C36.15176583 186.27044172 36.14531328 187.10927334 36.1386652 187.97352409 C36 190 36 190 35 192 C29.03686834 192.02464574 23.07376605 192.042834 17.1105957 192.05493164 C15.08031702 192.05997278 13.05004198 192.06680557 11.01977539 192.07543945 C8.10822653 192.08751467 5.1967255 192.09323034 2.28515625 192.09765625 C0.91485008 192.10539818 0.91485008 192.10539818 -0.48313904 192.11329651 C-2.65575427 192.11349168 -4.82827296 192.06211805 -7 192 C-8.85407328 190.14592672 -8.13030277 187.08464792 -8.13371277 184.60707092 C-8.13597833 183.93131891 -8.13824388 183.2555669 -8.14057809 182.55933756 C-8.14694601 180.27790399 -8.14608692 177.9965294 -8.14526367 175.71508789 C-8.14825365 174.0858655 -8.1516558 172.45664383 -8.15544128 170.8274231 C-8.1643074 166.38686608 -8.16662064 161.94632831 -8.16725707 157.50576329 C-8.16820506 153.7985439 -8.17188255 150.09132901 -8.17542917 146.38411134 C-8.18358556 137.63066502 -8.18601253 128.87722898 -8.18530273 120.1237793 C-8.18470335 111.10406912 -8.1952245 102.08441902 -8.2110464 93.06472403 C-8.22414719 85.31938587 -8.22948548 77.57406727 -8.22884732 69.82871813 C-8.22859285 65.20394213 -8.23141551 60.57921936 -8.24202538 55.95445442 C-8.2517477 51.59687784 -8.25175731 47.23940485 -8.24450874 42.88182449 C-8.24346764 41.28797821 -8.24579741 39.69412535 -8.2518692 38.1002903 C-8.291215 27.04990801 -7.56757325 17.28117599 -3.4375 6.9375 C-3.00308594 5.83277344 -2.56867187 4.72804688 -2.12109375 3.58984375 C-1 1 -1 1 0 0 Z M40 18 C36.05486737 23.97120639 35.44793356 29.15526847 35.609375 36.1875 C35.61503479 37.13061035 35.62069458 38.0737207 35.62652588 39.04541016 C35.64875415 42.03080978 35.6989244 45.01496874 35.75 48 C35.77008254 50.03513881 35.78833022 52.07029659 35.8046875 54.10546875 C35.84857443 59.07078391 35.91750686 64.03518227 36 69 C42.08316761 69.02487768 48.16630503 69.04294361 54.24951172 69.05493164 C56.31527218 69.05993387 58.38102915 69.06673776 60.44677734 69.07543945 C63.43067288 69.08768625 66.41452125 69.09326956 69.3984375 69.09765625 C70.30927094 69.10281754 71.22010437 69.10797882 72.15853882 69.11329651 C86.93193443 69.28592242 86.93193443 69.28592242 99.1875 61.875 C106.12952115 50.86351818 106.94311036 38.33347955 104.3046875 25.66015625 C102.18644957 19.74155027 99.02342055 15.94208927 93.25048828 13.15551758 C86.49436807 10.57541139 79.76670609 10.54261712 72.62573242 10.60888672 C70.56947217 10.62494555 68.51518445 10.60898489 66.45898438 10.58984375 C57.20829324 10.5754048 46.69263279 10.71684079 40 18 Z M128 138 C129 141 129 141 129 141 Z " fill="#26212C" transform="translate(13,54)"/>
<path d="M0 0 C2 1 2 1 2.61962891 2.74902344 C4.08118295 9.90723241 4.37237344 16.93356042 4.37060547 24.22998047 C4.37496283 26.23291408 4.41195211 28.23568962 4.44921875 30.23828125 C4.50877516 50.3881987 -3.13701262 66.9889896 -17.19140625 81.21875 C-22.62646773 86.27462115 -28.6428069 90.19756674 -35 94 C-34.66266846 94.52843506 -34.32533691 95.05687012 -33.9777832 95.60131836 C-32.41999513 98.04500678 -30.86623492 100.49123271 -29.3125 102.9375 C-28.78205078 103.76830078 -28.25160156 104.59910156 -27.70507812 105.45507812 C-24.27107176 110.86943172 -21.04573672 116.35800941 -18 122 C-16.515 121.01 -16.515 121.01 -15 120 C-11 126.5 -11 126.5 -11 131 C-10.38655243 132.68698082 -9.72904086 134.35965807 -9 136 C-8.01 135.67 -7.02 135.34 -6 135 C-5.67 135.33 -5.34 135.66 -5 136 C-4.66226563 135.4225 -4.32453125 134.845 -3.9765625 134.25 C-3.53054687 133.5075 -3.08453125 132.765 -2.625 132 C-1.96371094 130.88625 -1.96371094 130.88625 -1.2890625 129.75 C-0.86367187 129.1725 -0.43828125 128.595 0 128 C0.66 128 1.32 128 2 128 C0.33766168 133.49850367 -1.11431361 137.74287574 -6 141 C-4.21654158 143.98415422 -2.4218827 146.96141303 -0.625 149.9375 C-0.11710937 150.78763672 0.39078125 151.63777344 0.9140625 152.51367188 C1.40390625 153.32255859 1.89375 154.13144531 2.3984375 154.96484375 C2.84880371 155.7137085 3.29916992 156.46257324 3.76318359 157.23413086 C4.89241274 159.14455911 4.89241274 159.14455911 7 160 C7.32162109 159.43192627 7.64324219 158.86385254 7.97460938 158.27856445 C13.59909648 148.35647977 19.25492116 138.48394279 25.2890625 128.8046875 C27.37712313 125.38179358 29.2779505 121.88055388 31.171875 118.34765625 C33.7223939 113.67715476 36.36035987 109.05808107 39 104.4375 C39.49854492 103.56287109 39.99708984 102.68824219 40.51074219 101.78710938 C43.05980609 97.33084422 45.63519328 92.89069588 48.25 88.47265625 C48.72953125 87.6619165 49.2090625 86.85117676 49.703125 86.01586914 C51 84 51 84 53 82 C55.45703125 82.09765625 55.45703125 82.09765625 58 83 C59.44921875 84.87109375 59.44921875 84.87109375 60.6875 87.4375 C61.43580078 88.91863281 61.43580078 88.91863281 62.19921875 90.4296875 C62.79347656 91.60789062 63.38773437 92.78609375 64 94 C65.640623 97.03539699 67.31908774 100.04926757 69 103.0625 C69.43497803 103.84625 69.86995605 104.63 70.31811523 105.4375 C72.99965216 110.25605302 75.76656334 115.00816413 78.640625 119.71484375 C80.69737779 123.17231611 82.58007005 126.72075991 84.48828125 130.26171875 C86.42782728 133.77495329 88.50023363 137.19734878 90.60546875 140.61328125 C91.5963804 142.30921127 92.51942868 144.04559256 93.39331055 145.8046875 C94.88135062 148.7640354 96.45654882 151.63738325 98.1015625 154.51171875 C98.67390625 155.51654297 99.24625 156.52136719 99.8359375 157.55664062 C101.03561708 159.6560799 102.23614783 161.755033 103.4375 163.85351562 C104.00726563 164.85447266 104.57703125 165.85542969 105.1640625 166.88671875 C105.94450928 168.25123169 105.94450928 168.25123169 106.74072266 169.64331055 C108 172 108 172 109 175 C108.67 175.99 108.34 176.98 108 178 C106.35 178 104.7 178 103 178 C102.67 177.34 102.34 176.68 102 176 C103.65 176 105.3 176 107 176 C104.79428086 172.04020467 102.58494135 168.08244025 100.375 164.125 C99.75753906 163.01640625 99.14007813 161.9078125 98.50390625 160.765625 C95.70548208 155.75791859 92.88961273 150.77208993 89.9140625 145.8671875 C87.337381 141.61259708 84.93563267 137.28210959 82.57177734 132.90625 C79.69229055 127.5820172 76.74922822 122.292812 73.8125 117 C73.49006317 116.41882416 73.16762634 115.83764832 72.8354187 115.23886108 C67.01392491 104.75356814 61.06251265 94.34786463 55 84 C50.08059991 91.9012711 45.28414002 99.86467855 40.58154297 107.89672852 C38.33133633 111.73985147 36.06178058 115.56842937 33.75 119.375 C31.87835374 122.48234642 30.09802453 125.62042275 28.375 128.8125 C25.33388514 134.44419419 22.1737102 140.00485752 19 145.5625 C18.25242432 146.87408081 18.25242432 146.87408081 17.48974609 148.2121582 C14.07071189 154.18902446 10.56456341 160.10883215 7 166 C3.94282478 163.14306913 1.74377864 160.26245094 -0.43359375 156.6953125 C-1.07619141 155.64754639 -1.71878906 154.59978027 -2.38085938 153.52026367 C-3.05955078 152.39982666 -3.73824219 151.27938965 -4.4375 150.125 C-5.15007223 148.9572438 -5.86296682 147.78968426 -6.57617188 146.62231445 C-12.19409219 137.40766204 -17.68865558 128.12089389 -23.15625 118.81640625 C-27.18254543 111.97518419 -31.31209964 105.19655032 -35.59375 98.51171875 C-39 93.18472222 -39 93.18472222 -39 91 C-38.26136719 90.67128906 -37.52273437 90.34257812 -36.76171875 90.00390625 C-19.79785416 82.05007393 -8.38011418 69.6391392 -2 52 C-1.52240234 50.68322266 -1.52240234 50.68322266 -1.03515625 49.33984375 C2.63252258 36.78184664 2.75367994 20.73832446 0 8 C-0.11678799 5.32321927 -0.0454506 2.68158543 0 0 Z M-16 124 C-15 127 -15 127 -15 127 Z " fill="#211C24" transform="translate(157,68)"/>
<path d="M0 0 C1.17673248 3.53019745 0.51067002 4.4708523 -1.00712764 7.70582956 C-5.36699432 17.03994344 -5.85636666 25.32822403 -5.77294922 35.49194336 C-5.78114177 37.18872981 -5.7919566 38.88550528 -5.80516052 40.58226013 C-5.83333511 45.1393097 -5.8253318 49.69562873 -5.81029272 54.25271297 C-5.8008478 59.03334176 -5.82542281 63.81379998 -5.84622192 68.59437561 C-5.88042864 77.62501502 -5.88451958 86.65540072 -5.87749684 95.68609196 C-5.87098276 105.97652586 -5.89848911 116.26678364 -5.92869925 126.55716503 C-5.99002972 147.70484997 -6.00464808 168.85221953 -6 190 C6.87 190 19.74 190 33 190 C33 136.87 33 83.74 33 29 C33.33 29 33.66 29 34 29 C34.33 82.79 34.66 136.58 35 192 C21.14 192 7.28 192 -7 192 C-8.85407328 190.14592672 -8.13030277 187.08464792 -8.13371277 184.60707092 C-8.13597833 183.93131891 -8.13824388 183.2555669 -8.14057809 182.55933756 C-8.14694601 180.27790399 -8.14608692 177.9965294 -8.14526367 175.71508789 C-8.14825365 174.0858655 -8.1516558 172.45664383 -8.15544128 170.8274231 C-8.1643074 166.38686608 -8.16662064 161.94632831 -8.16725707 157.50576329 C-8.16820506 153.7985439 -8.17188255 150.09132901 -8.17542917 146.38411134 C-8.18358556 137.63066502 -8.18601253 128.87722898 -8.18530273 120.1237793 C-8.18470335 111.10406912 -8.1952245 102.08441902 -8.2110464 93.06472403 C-8.22414719 85.31938587 -8.22948548 77.57406727 -8.22884732 69.82871813 C-8.22859285 65.20394213 -8.23141551 60.57921936 -8.24202538 55.95445442 C-8.2517477 51.59687784 -8.25175731 47.23940485 -8.24450874 42.88182449 C-8.24346764 41.28797821 -8.24579741 39.69412535 -8.2518692 38.1002903 C-8.291215 27.04990801 -7.56757325 17.28117599 -3.4375 6.9375 C-3.00308594 5.83277344 -2.56867187 4.72804688 -2.12109375 3.58984375 C-1 1 -1 1 0 0 Z " fill="#2F3C31" transform="translate(13,54)"/>
<path d="M0 0 C1.2065625 0.0309375 1.2065625 0.0309375 2.4375 0.0625 C2.4375 1.0525 2.4375 2.0425 2.4375 3.0625 C3.0975 3.0625 3.7575 3.0625 4.4375 3.0625 C4.74864746 3.63991943 5.05979492 4.21733887 5.38037109 4.81225586 C12.87448628 18.69630742 20.43336287 32.53368059 28.8359375 45.89453125 C29.21202148 46.49450928 29.58810547 47.0944873 29.97558594 47.71264648 C30.98913002 49.32106718 32.01367729 50.92253965 33.0390625 52.5234375 C34.4375 55.0625 34.4375 55.0625 34.4375 58.0625 C35.0975 58.0625 35.7575 58.0625 36.4375 58.0625 C37.02917969 59.196875 37.62085938 60.33125 38.23046875 61.5 C39.02848197 63.02091932 39.82666835 64.5417478 40.625 66.0625 C41.01236328 66.80628906 41.39972656 67.55007812 41.79882812 68.31640625 C44.16500159 72.81409135 46.67904654 77.11522283 49.51293945 81.3359375 C50.4375 83.0625 50.4375 83.0625 50.4375 86.0625 C51.0975 86.0625 51.7575 86.0625 52.4375 86.0625 C54.0625 88.8125 54.0625 88.8125 55.4375 92.0625 C54.4475 94.0425 54.4475 94.0425 53.4375 96.0625 C18.1275 96.0625 -17.1825 96.0625 -53.5625 96.0625 C-54.2225 94.7425 -54.8825 93.4225 -55.5625 92.0625 C-54.734375 89.625 -54.734375 89.625 -53.3125 87.0625 C-52.62414062 85.7940625 -52.62414062 85.7940625 -51.921875 84.5 C-51.47328125 83.695625 -51.0246875 82.89125 -50.5625 82.0625 C-49.88865534 80.73277988 -49.21923526 79.40075298 -48.5625 78.0625 C-47.5725 78.3925 -46.5825 78.7225 -45.5625 79.0625 C-47.18383545 84.81087114 -49.47934689 88.5128244 -52.5625 94.0625 C-17.5825 94.0625 17.3975 94.0625 53.4375 94.0625 C48.4875 85.4825 43.5375 76.9025 38.4375 68.0625 C35.76672992 63.39805648 33.09783114 58.73285911 30.4375 54.0625 C21.44721368 38.10655839 21.44721368 38.10655839 11.875 22.5 C7.63898939 15.91701053 3.90482303 9.07853862 0.4375 2.0625 C-4.23251318 8.35069403 -8.14757069 14.79783751 -11.79296875 21.7265625 C-13.59552425 25.12475764 -15.46099659 28.47587294 -17.375 31.8125 C-17.93832031 32.79734375 -18.50164062 33.7821875 -19.08203125 34.796875 C-20.5625 37.0625 -20.5625 37.0625 -22.5625 38.0625 C-23.26476141 36.82073305 -23.94879109 35.56864401 -24.625 34.3125 C-25.00785156 33.61640625 -25.39070313 32.9203125 -25.78515625 32.203125 C-26.6937406 29.70109372 -26.44586837 28.5292645 -25.5625 26.0625 C-24.881875 27.2690625 -24.881875 27.2690625 -24.1875 28.5 C-22.81524335 31.15106572 -22.81524335 31.15106572 -20.5625 32.0625 C-20.303479 31.36415039 -20.04445801 30.66580078 -19.77758789 29.94628906 C-18.44182694 26.77610455 -16.84430585 23.8993022 -15.12109375 20.921875 C-14.79335464 20.35422424 -14.46561554 19.78657349 -14.12794495 19.20172119 C-13.43949029 18.01084856 -12.7494363 16.82089922 -12.05786133 15.63183594 C-10.99634734 13.80621807 -9.94017709 11.97758877 -8.88476562 10.1484375 C-3.05338083 0.0744727 -3.05338083 0.0744727 0 0 Z " fill="#201D26" transform="translate(330.5625,149.9375)"/>
<path d="M0 0 C1.32 0.33 2.64 0.66 4 1 C2.37866455 6.74837114 0.08315311 10.4503244 -3 16 C31.65 16 66.3 16 102 16 C102 16.66 102 17.32 102 18 C67.02 18 32.04 18 -4 18 C-4.66 16.68 -5.32 15.36 -6 14 C-5.13671875 11.5625 -5.13671875 11.5625 -3.6875 9 C-2.01429132 5.99280851 -0.66684282 3.38913055 0 0 Z " fill="#2E2C30" transform="translate(281,228)"/>
<path d="M0 0 C0.79000397 -0.0066568 1.58000793 -0.0133136 2.39395142 -0.02017212 C4.05623058 -0.03024306 5.71854973 -0.03499087 7.38085938 -0.03466797 C9.90042862 -0.03903885 12.41824005 -0.07540874 14.9375 -0.11328125 C32.47639086 -0.23700742 32.47639086 -0.23700742 39.06347656 5.71289062 C45.4006187 12.74194055 46.69499421 20.05463022 46.6015625 29.2109375 C46.59253906 30.36335938 46.58351563 31.51578125 46.57421875 32.703125 C46.56261719 33.57195312 46.55101563 34.44078125 46.5390625 35.3359375 C46.2090625 35.3359375 45.8790625 35.3359375 45.5390625 35.3359375 C45.44109375 34.36914062 45.343125 33.40234375 45.2421875 32.40625 C43.85794222 19.19004214 43.85794222 19.19004214 37.3515625 7.8984375 C29.19983999 3.36970277 21.35953593 2.85949527 12.16479492 2.94482422 C10.10853467 2.96088305 8.05424695 2.94492239 5.99804688 2.92578125 C-2.73037072 2.91149923 -11.30683319 3.06568517 -18.3984375 8.6484375 C-23.05638571 14.71788517 -24.0325901 19.86201392 -24.4609375 27.3359375 C-25.1209375 27.0059375 -25.7809375 26.6759375 -26.4609375 26.3359375 C-26.80561702 19.99128114 -26.84305363 14.93756735 -23.4609375 9.3359375 C-16.71404363 1.89004111 -9.80892296 0.02930491 0 0 Z " fill="#2B382C" transform="translate(73.4609375,62.6640625)"/>
<path d="M0 0 C0.33 0 0.66 0 1 0 C1.69314298 12.38672186 2.01279301 21.79955656 -6.453125 31.69921875 C-12.95966206 37.93762928 -22.35476051 37.27735163 -30.71875 37.1953125 C-31.81723267 37.1924826 -32.91571533 37.18965271 -34.04748535 37.18673706 C-37.531771 37.17560486 -41.01579296 37.15051298 -44.5 37.125 C-46.8723921 37.11496121 -49.24478826 37.10583694 -51.6171875 37.09765625 C-57.41154724 37.07568834 -63.20575477 37.04228046 -69 37 C-65.04283406 34.36188937 -61.67465563 34.76724141 -57.08984375 34.83984375 C-56.20776749 34.84504532 -55.32569122 34.85024689 -54.41688538 34.85560608 C-51.59025679 34.87342598 -48.7639895 34.90454153 -45.9375 34.9375 C-43.13603753 34.9652851 -40.3346351 34.99004817 -37.53309631 35.00868225 C-35.79105326 35.02075284 -34.04903548 35.03816356 -32.30711365 35.06199646 C-20.53660433 35.40187808 -20.53660433 35.40187808 -10 31 C-9.34 31 -8.68 31 -8 31 C-7.72285156 30.43796875 -7.44570312 29.8759375 -7.16015625 29.296875 C-6.38856743 27.76928501 -5.58363853 26.25807239 -4.74609375 24.765625 C-0.49336492 16.59022987 -0.12457114 9.02574563 0 0 Z " fill="#100B1C" transform="translate(118,87)"/>
<path d="M0 0 C1.2065625 0.0309375 1.2065625 0.0309375 2.4375 0.0625 C2.7675 2.0425 3.0975 4.0225 3.4375 6.0625 C2.4475 4.7425 1.4575 3.4225 0.4375 2.0625 C-4.23251318 8.35069403 -8.14757069 14.79783751 -11.79296875 21.7265625 C-13.59552425 25.12475764 -15.46099659 28.47587294 -17.375 31.8125 C-17.93832031 32.79734375 -18.50164062 33.7821875 -19.08203125 34.796875 C-20.5625 37.0625 -20.5625 37.0625 -22.5625 38.0625 C-23.26476141 36.82073305 -23.94879109 35.56864401 -24.625 34.3125 C-25.00785156 33.61640625 -25.39070313 32.9203125 -25.78515625 32.203125 C-26.6937406 29.70109372 -26.44586837 28.5292645 -25.5625 26.0625 C-25.10875 26.866875 -24.655 27.67125 -24.1875 28.5 C-22.81524335 31.15106572 -22.81524335 31.15106572 -20.5625 32.0625 C-20.303479 31.36415039 -20.04445801 30.66580078 -19.77758789 29.94628906 C-18.44182694 26.77610455 -16.84430585 23.8993022 -15.12109375 20.921875 C-14.79335464 20.35422424 -14.46561554 19.78657349 -14.12794495 19.20172119 C-13.43949029 18.01084856 -12.7494363 16.82089922 -12.05786133 15.63183594 C-10.99634734 13.80621807 -9.94017709 11.97758877 -8.88476562 10.1484375 C-3.05338083 0.0744727 -3.05338083 0.0744727 0 0 Z " fill="#232127" transform="translate(330.5625,149.9375)"/>
<path d="M0 0 C4.71388705 -0.09940876 9.42715442 -0.17172034 14.1418457 -0.21972656 C15.74319091 -0.23975347 17.3444638 -0.26698354 18.94555664 -0.30175781 C21.25685537 -0.35067419 23.56718154 -0.37305711 25.87890625 -0.390625 C26.9402755 -0.42159271 26.9402755 -0.42159271 28.02308655 -0.45318604 C33.55815853 -0.45564463 36.53865825 0.97547937 41 4 C47.69316836 11.06501104 49.15903713 18.41436115 49.0625 27.875 C49.05347656 29.02742188 49.04445312 30.17984375 49.03515625 31.3671875 C49.02355469 32.23601562 49.01195312 33.10484375 49 34 C48.67 34 48.34 34 48 34 C47.90203125 33.03320312 47.8040625 32.06640625 47.703125 31.0703125 C46.31887972 17.85410464 46.31887972 17.85410464 39.8125 6.5625 C31.30925179 1.83847322 23.03484282 1.48431944 13.4375 1.3125 C12.14263672 1.27833984 10.84777344 1.24417969 9.51367188 1.20898438 C6.34253456 1.12707308 3.17165406 1.05773603 0 1 C0 0.67 0 0.34 0 0 Z " fill="#221E2B" transform="translate(71,64)"/>
<path d="M0 0 C1.56532258 0.91183839 3.12712514 1.82972052 4.6875 2.75 C5.99267578 3.51570313 5.99267578 3.51570313 7.32421875 4.296875 C18.16003305 11.19383125 26.13013559 22.19331907 31 34 C31.18359375 36.8828125 31.18359375 36.8828125 31 39 C28.31344716 35.73775726 26.7307827 32.34233759 25 28.5 C19.81669737 17.68619114 11.97496087 9.66552764 1.80078125 3.3046875 C1.20652344 2.87414062 0.61226563 2.44359375 0 2 C0 1.34 0 0.68 0 0 Z " fill="#1E1622" transform="translate(126,29)"/>
<path d="M0 0 C3.04385918 3.67456874 5.70436581 7.4646984 8.25 11.5 C8.95640625 12.6034375 9.6628125 13.706875 10.390625 14.84375 C11.98304475 17.96674796 12.38379919 19.57139394 12 23 C8.56140813 19.03239399 5.9864597 14.73307933 3.3671875 10.20703125 C2.05771559 7.90522037 2.05771559 7.90522037 0 6 C-0.45375 6.825 -0.9075 7.65 -1.375 8.5 C-1.91125 9.325 -2.4475 10.15 -3 11 C-3.66 11 -4.32 11 -5 11 C-4.32902328 6.80639551 -2.1441606 3.59665648 0 0 Z " fill="#1F2024" transform="translate(330,101)"/>
<path d="M0 0 C0.33 0 0.66 0 1 0 C0.98839844 0.57331055 0.97679687 1.14662109 0.96484375 1.73730469 C0.82273587 14.38998093 1.15059384 23.26363742 10 33 C9.34 33.99 8.68 34.98 8 36 C1.38251629 29.26434694 -0.47453207 23.82539244 -0.5625 14.57226562 C-0.47098957 9.70791446 -0.3062805 4.85572398 0 0 Z " fill="#333638" transform="translate(48,103)"/>
<path d="M0 0 C1.32 0.33 2.64 0.66 4 1 C2.58175867 5.84565789 0.55572918 9.68720701 -2 14 C-2.6802367 15.32646156 -3.35492261 16.65608877 -4 18 C-5.14453125 16.3125 -5.14453125 16.3125 -6 14 C-5.13671875 11.5625 -5.13671875 11.5625 -3.6875 9 C-2.01429132 5.99280851 -0.66684282 3.38913055 0 0 Z " fill="#1D1C20" transform="translate(281,228)"/>
<path d="M0 0 C8 9.42857143 8 9.42857143 8 15 C8.66 15 9.32 15 10 15 C11.625 17.75 11.625 17.75 13 21 C12.1875 23.375 12.1875 23.375 11 25 C10.88213135 24.42185547 10.7642627 23.84371094 10.64282227 23.24804688 C9.96026852 20.861053 9.02261977 19.13591622 7.71484375 17.03125 C7.26689453 16.29519531 6.81894531 15.55914062 6.35742188 14.80078125 C5.40972826 13.26517867 4.45919778 11.7313233 3.50585938 10.19921875 C3.05919922 9.46316406 2.61253906 8.72710937 2.15234375 7.96875 C1.73976318 7.30294922 1.32718262 6.63714844 0.90209961 5.95117188 C0 4 0 4 0 0 Z " fill="#17131E" transform="translate(373,221)"/>
<path d="M0 0 C2.59663414 1.29831707 3.07107521 2.64620529 4.4375 5.1875 C4.87320312 5.99445313 5.30890625 6.80140625 5.7578125 7.6328125 C7.21148767 10.40302367 8.62981628 13.18751762 10 16 C9.01 16.33 8.02 16.66 7 17 C5.63319847 14.73595458 4.28155555 12.46498979 2.9375 10.1875 C2.54755859 9.54490234 2.15761719 8.90230469 1.75585938 8.24023438 C0.75869241 6.5371085 -0.12812687 4.77054142 -1 3 C-0.67 2.01 -0.34 1.02 0 0 Z " fill="#202428" transform="translate(283,139)"/>
<path d="M0 0 C4.51111628 1.47655047 6.14396627 5.01669587 8.3125 8.9375 C8.68439453 9.57107422 9.05628906 10.20464844 9.43945312 10.85742188 C10.38101348 12.52487792 11.19950225 14.26041703 12 16 C11.67 16.99 11.34 17.98 11 19 C8.03073619 15.44608026 5.57681464 11.81482005 3.25 7.8125 C2.63640625 6.76707031 2.0228125 5.72164062 1.390625 4.64453125 C0 2 0 2 0 0 Z " fill="#202023" transform="translate(370,173)"/>
<path d="M0 0 C0.66 0 1.32 0 2 0 C0.78305522 4.0252789 -0.41464676 7.64861617 -3 11 C-5.6875 11.8125 -5.6875 11.8125 -8 12 C-8 11.01 -8 10.02 -8 9 C-8.66 9 -9.32 9 -10 9 C-10.66 7.68 -11.32 6.36 -12 5 C-11.01 5.33 -10.02 5.66 -9 6 C-9 6.66 -9 7.32 -9 8 C-8.01 7.67 -7.02 7.34 -6 7 C-5.67 7.33 -5.34 7.66 -5 8 C-4.66226563 7.4225 -4.32453125 6.845 -3.9765625 6.25 C-3.53054687 5.5075 -3.08453125 4.765 -2.625 4 C-2.18414062 3.2575 -1.74328125 2.515 -1.2890625 1.75 C-0.65097656 0.88375 -0.65097656 0.88375 0 0 Z " fill="#151C1C" transform="translate(157,196)"/>
<path d="M0 0 C0.99 0.33 1.98 0.66 3 1 C-1.95 9.91 -1.95 9.91 -7 19 C-7.66 18.67 -8.32 18.34 -9 18 C-7.65072455 13.46152802 -5.80840652 9.68067754 -3.375 5.625 C-2.74335938 4.56539062 -2.11171875 3.50578125 -1.4609375 2.4140625 C-0.73777344 1.21910156 -0.73777344 1.21910156 0 0 Z " fill="#252528" transform="translate(186,144)"/>
<path d="M0 0 C2.95764968 2.77159363 5.12173096 5.51633807 7.1875 9 C7.95126953 10.2684375 7.95126953 10.2684375 8.73046875 11.5625 C9.86964127 13.74971123 10.53739308 15.59221456 11 18 C7.67841714 16.89280571 7.41279673 16.52974601 5.703125 13.69140625 C5.30222656 13.02689453 4.90132813 12.36238281 4.48828125 11.67773438 C4.07964844 10.97970703 3.67101562 10.28167969 3.25 9.5625 C2.82589844 8.86833984 2.40179688 8.17417969 1.96484375 7.45898438 C0.90682667 5.67896541 -0.05475786 3.84238567 -1 2 C-0.67 1.34 -0.34 0.68 0 0 Z " fill="#1E1B25" transform="translate(71,160)"/>
<path d="M0 0 C3.74709123 1.24903041 4.08841368 2.38481158 6 5.75 C6.495 6.61109375 6.99 7.4721875 7.5 8.359375 C7.995 9.23078125 8.49 10.1021875 9 11 C9.5775 11.85078125 10.155 12.7015625 10.75 13.578125 C12 16 12 16 11.6875 18.3125 C11.460625 18.869375 11.23375 19.42625 11 20 C6.14423383 13.85888397 3.12843695 7.14917722 0 0 Z " fill="#1B1C1F" transform="translate(262,106)"/>
<path d="M0 0 C2.80496817 2.47841964 4.32957227 5.20256207 6.0625 8.5 C7.61769555 11.444187 9.15122196 14.22683295 11 17 C10.625 19.1875 10.625 19.1875 10 21 C6.10345761 14.43279372 2.30967015 7.88411391 -1 1 C-0.67 0.67 -0.34 0.34 0 0 Z " fill="#272527" transform="translate(241,200)"/>
<path d="M0 0 C0.66 0.33 1.32 0.66 2 1 C0.77023438 2.19496094 0.77023438 2.19496094 -0.484375 3.4140625 C-1.57318606 4.48410095 -2.66171263 5.55442893 -3.75 6.625 C-4.28882813 7.14707031 -4.82765625 7.66914062 -5.3828125 8.20703125 C-7.98079862 10.77333461 -10.28341216 13.25964614 -12.265625 16.3359375 C-14 19 -14 19 -16 20 C-15.38821244 16.34603593 -13.8335544 14.13957441 -11.5625 11.25 C-10.94503906 10.45078125 -10.32757812 9.6515625 -9.69140625 8.828125 C-9.13324219 8.22484375 -8.57507813 7.6215625 -8 7 C-7.34 7 -6.68 7 -6 7 C-5.67 6.01 -5.34 5.02 -5 4 C-3.37667033 2.61423077 -1.71275535 1.27358732 0 0 Z " fill="#1D1923" transform="translate(30,34)"/>
<path d="M0 0 C0.66 0.33 1.32 0.66 2 1 C2 1.66 2 2.32 2 3 C0.25 4.2890625 0.25 4.2890625 -2 5.625 C-2.7425 6.07101563 -3.485 6.51703125 -4.25 6.9765625 C-4.8275 7.31429687 -5.405 7.65203125 -6 8 C-5.34 9.32 -4.68 10.64 -4 12 C-4.99 12 -5.98 12 -7 12 C-10 7.77777778 -10 7.77777778 -10 5 C-8.38007835 4.13624104 -6.75388139 3.28424146 -5.125 2.4375 C-4.22007813 1.96183594 -3.31515625 1.48617187 -2.3828125 0.99609375 C-1.20332031 0.50302734 -1.20332031 0.50302734 0 0 Z " fill="#27262F" transform="translate(128,154)"/>
<path d="M0 0 C0.66 0 1.32 0 2 0 C0.45614871 4.14032846 -1.51028938 7.93553053 -3.625 11.8125 C-3.94984375 12.40998047 -4.2746875 13.00746094 -4.609375 13.62304688 C-5.40379151 15.08337135 -6.20155376 16.54187491 -7 18 C-7.66 17.67 -8.32 17.34 -9 17 C-7.5143761 12.99624358 -5.63136615 9.38578153 -3.5 5.6875 C-2.58734375 4.08455078 -2.58734375 4.08455078 -1.65625 2.44921875 C-1.1096875 1.64097656 -0.563125 0.83273438 0 0 Z " fill="#202025" transform="translate(314,129)"/>
<path d="M0 0 C3.29525123 2.95727675 5.01116032 5.69270742 6.75 9.75 C7.17796875 10.73484375 7.6059375 11.7196875 8.046875 12.734375 C8.51867187 13.85585937 8.51867187 13.85585937 9 15 C8.01 15.495 8.01 15.495 7 16 C5.63597957 13.7136988 4.28365726 11.42178251 2.9375 9.125 C2.54755859 8.47402344 2.15761719 7.82304687 1.75585938 7.15234375 C0.77555467 5.46934275 -0.11898432 3.73703801 -1 2 C-0.67 1.34 -0.34 0.68 0 0 Z " fill="#1C1D21" transform="translate(386,199)"/>
<path d="M0 0 C2.26510339 2.13852409 4.04779168 4.32911607 5.75 6.9375 C6.19859375 7.60652344 6.6471875 8.27554688 7.109375 8.96484375 C8.18726604 11.42791933 7.90922753 12.52180058 7 15 C3.17398376 10.76405345 1.13637096 6.21592698 -1 1 C-0.67 0.67 -0.34 0.34 0 0 Z " fill="#1F2024" transform="translate(266,198)"/>
<path d="M0 0 C1.17482324 3.47454806 1.06339535 3.8675142 -0.65234375 7.453125 C-1.40158685 8.72617522 -2.16382013 9.99165126 -2.9375 11.25 C-3.32357422 11.8996875 -3.70964844 12.549375 -4.10742188 13.21875 C-5.06058418 14.81912129 -6.02885924 16.4104742 -7 18 C-7.66 18 -8.32 18 -9 18 C-7.7833314 13.46514431 -5.95002946 10.36231787 -3.17578125 6.6796875 C-1.70682305 4.58117578 -0.80775714 2.42327141 0 0 Z " fill="#1F2021" transform="translate(291,81)"/>
<path d="M0 0 C0.66 0.66 1.32 1.32 2 2 C-0.31 6.29 -2.62 10.58 -5 15 C-5.66 14.67 -6.32 14.34 -7 14 C-5.53967505 8.68972746 -3.01679014 4.53669968 0 0 Z " fill="#27292A" transform="translate(170,218)"/>
<path d="M0 0 C3.61773603 1.43315025 4.969107 3.04587964 6.8125 6.4375 C7.25207031 7.21996094 7.69164062 8.00242188 8.14453125 8.80859375 C9 11 9 11 8 14 C0 4.57142857 0 4.57142857 0 0 Z " fill="#212226" transform="translate(362,159)"/>
<path d="M0 0 C3.90450847 2.60300565 4.8798913 4.8328898 7 9 C7 9.99 7 10.98 7 12 C7.66 12 8.32 12 9 12 C9.66 13.65 10.32 15.3 11 17 C10.34 17.33 9.68 17.66 9 18 C7.49480613 15.37785672 5.99568681 12.75255792 4.5 10.125 C3.85611328 9.00544922 3.85611328 9.00544922 3.19921875 7.86328125 C2.79316406 7.14785156 2.38710937 6.43242188 1.96875 5.6953125 C1.59169922 5.03547363 1.21464844 4.37563477 0.82617188 3.69580078 C0 2 0 2 0 0 Z " fill="#1E1E21" transform="translate(246,77)"/>
<path d="M0 0 C3.36817592 2.24545062 4.20900034 3.83865538 6.0625 7.375 C6.56910156 8.33148438 7.07570312 9.28796875 7.59765625 10.2734375 C8.74717589 12.50843669 9.88458781 14.74782802 11 17 C10.01 17 9.02 17 8 17 C6.66161267 14.54429825 5.32913768 12.08570084 4 9.625 C3.6184375 8.92632812 3.236875 8.22765625 2.84375 7.5078125 C0 2.2265625 0 2.2265625 0 0 Z " fill="#1C1C20" transform="translate(230,49)"/>
<path d="M0 0 C0.66 0.33 1.32 0.66 2 1 C0.35821735 5.77609498 -2.26546702 9.79382904 -5 14 C-5.66 13.67 -6.32 13.34 -7 13 C-5.35821735 8.22390502 -2.73453298 4.20617096 0 0 Z " fill="#28292C" transform="translate(185,192)"/>
<path d="M0 0 C4.1932565 4.67709379 7.54164713 10.22510562 10 16 C9.67 16.99 9.34 17.98 9 19 C7.87344187 17.08424874 6.74881313 15.16736281 5.625 13.25 C4.99851562 12.18265625 4.37203125 11.1153125 3.7265625 10.015625 C0 3.50678733 0 3.50678733 0 0 Z " fill="#1A1B24" transform="translate(344,171)"/>
<path d="M0 0 C3.88705443 1.29568481 4.26799098 2.70483272 6.1875 6.25 C6.71730469 7.20390625 7.24710938 8.1578125 7.79296875 9.140625 C9.01747942 12.04140757 9.25504467 13.89412264 9 17 C6.25945632 13.67513619 4.57623951 10.16942114 2.8125 6.25 C2.28269531 5.07953125 1.75289062 3.9090625 1.20703125 2.703125 C0.80871094 1.81109375 0.41039062 0.9190625 0 0 Z " fill="#28222C" transform="translate(148,51)"/>
<path d="M0 0 C0.99 0 1.98 0 3 0 C1.54331217 2.96783129 -0.01232086 5.86415313 -1.625 8.75 C-2.29402344 9.94882813 -2.29402344 9.94882813 -2.9765625 11.171875 C-3.31429687 11.77515625 -3.65203125 12.3784375 -4 13 C-4.66 13 -5.32 13 -6 13 C-4.31326082 8.50202887 -2.18326108 4.27113698 0 0 Z " fill="#1C1C22" transform="translate(170,172)"/>
<path d="M0 0 C2.625 -0.1875 2.625 -0.1875 5 0 C5.33 1.98 5.66 3.96 6 6 C5.01 4.68 4.02 3.36 3 2 C2.401875 2.99 1.80375 3.98 1.1875 5 C0.465625 5.99 -0.25625 6.98 -1 8 C-1.99 8 -2.98 8 -4 8 C-2.87548273 5.0280615 -1.77706209 2.66559313 0 0 Z " fill="#2A2E32" transform="translate(328,150)"/>
<path d="M0 0 C3 1 3 1 4.5 3.6875 C4.995 4.780625 5.49 5.87375 6 7 C6.556875 8.11375 7.11375 9.2275 7.6875 10.375 C8.3371875 11.674375 8.3371875 11.674375 9 13 C8.01 13.495 8.01 13.495 7 14 C5.82807953 12.04480616 4.6626071 10.0857461 3.5 8.125 C2.8503125 7.03445312 2.200625 5.94390625 1.53125 4.8203125 C0 2 0 2 0 0 Z " fill="#1D1413" transform="translate(233,187)"/>
<path d="M0 0 C2.49552403 2.27597646 4.06622986 4.60721178 5.6875 7.5625 C6.12449219 8.34753906 6.56148437 9.13257813 7.01171875 9.94140625 C8 12 8 12 8 14 C7.34 14 6.68 14 6 14 C4.4921875 11.953125 4.4921875 11.953125 2.875 9.25 C2.33617187 8.36828125 1.79734375 7.4865625 1.2421875 6.578125 C0 4 0 4 0 0 Z " fill="#202025" transform="translate(222,34)"/>
<path d="M0 0 C0.66 0.33 1.32 0.66 2 1 C2.28571429 8.42857143 2.28571429 8.42857143 0 12 C-0.66 12 -1.32 12 -2 12 C-1.44687265 7.97007218 -0.8441938 3.97977076 0 0 Z " fill="#2A262F" transform="translate(158,107)"/>
<path d="M0 0 C4.5565527 3.71274665 6.57400393 8.79007402 9 14 C5.37640811 12.56759722 4.06444274 10.97298034 2.25 7.5625 C1.82203125 6.78003906 1.3940625 5.99757813 0.953125 5.19140625 C0 3 0 3 0 0 Z " fill="#1E2123" transform="translate(365,78)"/>
<path d="M0 0 C0.33 0 0.66 0 1 0 C1.21192221 5.19209404 0.5912689 9.126739 -1 14 C-1.99 13.67 -2.98 13.34 -4 13 C-2.68 8.71 -1.36 4.42 0 0 Z " fill="#201F22" transform="translate(162,110)"/>
<path d="M0 0 C3.49873271 1.39655297 4.70891831 2.71260484 6.25 6.125 C6.58515625 6.84945312 6.9203125 7.57390625 7.265625 8.3203125 C7.62914062 9.15175781 7.62914062 9.15175781 8 10 C7.34 10.66 6.68 11.32 6 12 C4.99747693 10.18889433 3.99804504 8.37607722 3 6.5625 C2.443125 5.55316406 1.88625 4.54382813 1.3125 3.50390625 C0 1 0 1 0 0 Z " fill="#202023" transform="translate(241,156)"/>
<path d="M0 0 C0.66 0.99 1.32 1.98 2 3 C2.99 3.66 3.98 4.32 5 5 C4.01 5.495 4.01 5.495 3 6 C3.309375 6.928125 3.309375 6.928125 3.625 7.875 C3.74875 8.57625 3.8725 9.2775 4 10 C3.34 10.66 2.68 11.32 2 12 C0.4375 9.6875 0.4375 9.6875 -1 7 C-0.67 6.01 -0.34 5.02 0 4 C-0.33 3.01 -0.66 2.02 -1 1 C-0.67 0.67 -0.34 0.34 0 0 Z " fill="#131414" transform="translate(294,154)"/>
<path d="M0 0 C0.433125 0.598125 0.86625 1.19625 1.3125 1.8125 C2.90681105 3.98975883 2.90681105 3.98975883 4.6875 5.625 C6 7 6 7 6 9 C4.35 8.67 2.7 8.34 1 8 C1 7.01 1 6.02 1 5 C0.34 5 -0.32 5 -1 5 C-1.33 4.01 -1.66 3.02 -2 2 C-1.34 2 -0.68 2 0 2 C0 1.34 0 0.68 0 0 Z " fill="#242A2D" transform="translate(294,149)"/>
<path d="M0 0 C2.76544722 3.45680903 4.84921278 7.14341602 7 11 C6.01 11.33 5.02 11.66 4 12 C3.13624104 10.38007835 2.28424146 8.75388139 1.4375 7.125 C0.72400391 5.76761719 0.72400391 5.76761719 -0.00390625 4.3828125 C-0.33261719 3.59648437 -0.66132813 2.81015625 -1 2 C-0.67 1.34 -0.34 0.68 0 0 Z " fill="#1E1E22" transform="translate(276,127)"/>
<path d="M0 0 C3.17119503 1.09351553 4.00783543 2.0126988 5.8125 4.9375 C7 8 7 8 6 11 C0 3.28571429 0 3.28571429 0 0 Z " fill="#1E1F21" transform="translate(342,124)"/>
<path d="M0 0 C2.42945561 3.64418341 2.0828781 4.92923364 1.625 9.1875 C1.51414063 10.27417969 1.40328125 11.36085938 1.2890625 12.48046875 C1.19367187 13.31191406 1.09828125 14.14335938 1 15 C0.34 14.67 -0.32 14.34 -1 14 C-1.027193 12.41676312 -1.04648306 10.83338938 -1.0625 9.25 C-1.07410156 8.36828125 -1.08570313 7.4865625 -1.09765625 6.578125 C-1.00826198 4.2181162 -0.66912821 2.25501476 0 0 Z " fill="#282737" transform="translate(48,75)"/>
<path d="M0 0 C0.33 0.99 0.66 1.98 1 3 C-0.21484375 5.04296875 -0.21484375 5.04296875 -1.9375 7.1875 C-2.50339844 7.90292969 -3.06929687 8.61835937 -3.65234375 9.35546875 C-4.09707031 9.89816406 -4.54179688 10.44085938 -5 11 C-5.68359375 9.234375 -5.68359375 9.234375 -6 7 C-4.78515625 5.078125 -4.78515625 5.078125 -3.0625 3.25 C-2.49660156 2.63640625 -1.93070313 2.0228125 -1.34765625 1.390625 C-0.90292969 0.93171875 -0.45820312 0.4728125 0 0 Z " fill="#242228" transform="translate(55,67)"/>
<path d="M0 0 C1.5877405 0.90901174 3.17001197 1.82757924 4.75 2.75 C6.07257813 3.51570313 6.07257813 3.51570313 7.421875 4.296875 C9.96537343 5.97712548 11.92902925 7.77419032 14 10 C10.28584259 9.36651054 7.80869701 7.71342582 4.75 5.5625 C3.85796875 4.94503906 2.9659375 4.32757813 2.046875 3.69140625 C1.37140625 3.13324219 0.6959375 2.57507813 0 2 C0 1.34 0 0.68 0 0 Z " fill="#17101C" transform="translate(126,29)"/>
<path d="M0 0 C2.33524782 2.25740623 4.18705073 4.2805761 6 7 C6 7.99 6 8.98 6 10 C5.34 10 4.68 10 4 10 C2.35 7.03 0.7 4.06 -1 1 C-0.67 0.67 -0.34 0.34 0 0 Z " fill="#1F1924" transform="translate(112,227)"/>
<path d="M0 0 C-0.98562757 3.31529273 -1.65447419 4.74949379 -4.5 6.8125 C-7 8 -7 8 -9 8 C-7.70948419 4.12845257 -4.40863591 0 0 0 Z " fill="#202022" transform="translate(142,150)"/>
<path d="M0 0 C0.66 0 1.32 0 2 0 C2 0.66 2 1.32 2 2 C2.66 2 3.32 2 4 2 C5.625 4.75 5.625 4.75 7 8 C6.1875 10.375 6.1875 10.375 5 12 C4.87753906 11.42765625 4.75507813 10.8553125 4.62890625 10.265625 C3.97237132 7.90046809 3.06276488 5.92793203 1.9375 3.75 C1.39416016 2.69039062 1.39416016 2.69039062 0.83984375 1.609375 C0.42412109 0.81273437 0.42412109 0.81273437 0 0 Z " fill="#1F1C24" transform="translate(379,234)"/>
<path d="M0 0 C2.77617951 1.85078634 3.65081292 2.64206088 5.25 5.375 C5.60578125 5.96023437 5.9615625 6.54546875 6.328125 7.1484375 C7.16838532 9.4640386 6.78737913 10.70852484 6 13 C4.99491199 11.21118264 3.99607264 9.41885304 3 7.625 C2.1646875 6.12839844 2.1646875 6.12839844 1.3125 4.6015625 C0 2 0 2 0 0 Z " fill="#1C1D21" transform="translate(438,205)"/>
<path d="M0 0 C1.98 0.99 1.98 0.99 4 2 C4 2.66 4 3.32 4 4 C4.66 4 5.32 4 6 4 C6.33 5.65 6.66 7.3 7 9 C6.01 9.495 6.01 9.495 5 10 C3.35 6.7 1.7 3.4 0 0 Z " fill="#2B2C30" transform="translate(143,201)"/>
<path d="M0 0 C3.32368224 1.10789408 3.61563093 1.48436217 5.25 4.375 C5.60578125 4.98085937 5.9615625 5.58671875 6.328125 6.2109375 C7 8 7 8 6 11 C3.13546142 7.58983503 1.65296434 4.09305456 0 0 Z " fill="#232527" transform="translate(253,177)"/>
<path d="M0 0 C3.68006822 3.38168431 5.9785845 6.42521756 8 11 C7.01 11 6.02 11 5 11 C4.16151196 9.54462432 3.32936066 8.08559627 2.5 6.625 C1.80390625 5.40683594 1.80390625 5.40683594 1.09375 4.1640625 C0 2 0 2 0 0 Z " fill="#202124" transform="translate(212,18)"/>
<path d="M0 0 C3.75376152 1.25125384 4.24073289 2.5652404 6 6 C6 6.66 6 7.32 6 8 C4.125 7.75 4.125 7.75 2 7 C0.27898465 4.41847698 0 3.15081975 0 0 Z " fill="#202A31" transform="translate(332,106)"/>
<path d="M0 0 C3.03869411 1.51934706 3.64410306 3.98004772 5 7 C5 7.66 5 8.32 5 9 C3.125 8.375 3.125 8.375 1 7 C-0.25 3.875 -0.25 3.875 -1 1 C-0.67 0.67 -0.34 0.34 0 0 Z " fill="#1E2226" transform="translate(277,217)"/>
<path d="M0 0 C0.66 0 1.32 0 2 0 C0.7508258 3.45925163 -0.67527795 6.14693203 -3 9 C-3.33 8.01 -3.66 7.02 -4 6 C-2.1875 2.8125 -2.1875 2.8125 0 0 Z " fill="#1F202B" transform="translate(205,158)"/>
<path d="M0 0 C2.52349243 3.12432397 4.27256146 6.38060496 6 10 C5.01 10 4.02 10 3 10 C0.39749195 6.62637846 -0.36265043 4.23092172 0 0 Z " fill="#201517" transform="translate(252,218)"/>
<path d="M0 0 C3.0916909 2.52956528 3.90931332 5.22454612 5 9 C2 8 2 8 0.25 5.625 C-1 3 -1 3 0 0 Z " fill="#222527" transform="translate(446,218)"/>
<path d="M0 0 C3.0916909 2.52956528 3.90931332 5.22454612 5 9 C4.01 9 3.02 9 2 9 C0.14223235 5.86501708 -0.20140476 3.62528568 0 0 Z " fill="#1B1C23" transform="translate(298,165)"/>
<path d="M0 0 C0.66 0.99 1.32 1.98 2 3 C0.7260411 5.03833424 -0.61061923 7.03852126 -2 9 C-2.66 9 -3.32 9 -4 9 C-2.94124926 5.59687262 -1.99097846 2.98646769 0 0 Z " fill="#1F1F22" transform="translate(193,132)"/>
<path d="M0 0 C0.66 0.66 1.32 1.32 2 2 C0.68 4.31 -0.64 6.62 -2 9 C-2.66 9 -3.32 9 -4 9 C-2.94124926 5.59687262 -1.99097846 2.98646769 0 0 Z " fill="#1C1E21" transform="translate(320,118)"/>
<path d="M0 0 C1 3 1 3 0.00390625 5.04296875 C-0.47175781 5.75066406 -0.94742188 6.45835938 -1.4375 7.1875 C-1.91058594 7.90292969 -2.38367188 8.61835937 -2.87109375 9.35546875 C-3.24363281 9.89816406 -3.61617187 10.44085938 -4 11 C-4.66 10.67 -5.32 10.34 -6 10 C-4.07119658 6.59244728 -2.1723491 3.25852365 0 0 Z " fill="#1E2023" transform="translate(180,69)"/>
<path d="M0 0 C1.32 0.33 2.64 0.66 4 1 C2.25 6.75 2.25 6.75 0 9 C0 6.03 0 3.06 0 0 Z " fill="#21262C" transform="translate(281,228)"/>
<path d="M0 0 C0.66 0 1.32 0 2 0 C0.125 5.75 0.125 5.75 -1 8 C-1.99 8 -2.98 8 -4 8 C-2.87548273 5.0280615 -1.77706209 2.66559313 0 0 Z " fill="#212125" transform="translate(157,196)"/>
<path d="M0 0 C0.33 0 0.66 0 1 0 C1.38897161 1.62171239 1.76078298 3.24754925 2.125 4.875 C2.33382813 5.77992187 2.54265625 6.68484375 2.7578125 7.6171875 C2.83773438 8.40351562 2.91765625 9.18984375 3 10 C2.34 10.66 1.68 11.32 1 12 C-1.22923777 7.67265609 -0.92470553 4.71599818 0 0 Z " fill="#1F1F23" transform="translate(274,110)"/>
<path d="M0 0 C0.66 0 1.32 0 2 0 C3.6875 2.3125 3.6875 2.3125 5 5 C4.67 5.99 4.34 6.98 4 8 C0 3.375 0 3.375 0 0 Z " fill="#232428" transform="translate(358,151)"/>
<path d="M0 0 C0.99 0 1.98 0 3 0 C6 4.22222222 6 4.22222222 6 7 C5.01 7 4.02 7 3 7 C2.01 4.69 1.02 2.38 0 0 Z " fill="#1F1F24" transform="translate(348,135)"/>
<path d="M0 0 C2.79872437 2.52788007 4.45773019 4.20411134 5 8 C4.01 8.495 4.01 8.495 3 9 C0.70620251 5.55930376 0 4.27709699 0 0 Z " fill="#1E1B23" transform="translate(57,137)"/>
<path d="M0 0 C3.67230705 3.07999946 4.56802365 5.2482602 5 10 C2.08772731 6.71195019 0.50298788 4.40114397 0 0 Z " fill="#1F2326" transform="translate(230,135)"/>
<path d="M0 0 C0.6875 1.625 0.6875 1.625 1 4 C-0.4375 7.25 -0.4375 7.25 -2 10 C-2.66 9.67 -3.32 9.34 -4 9 C-2.80100302 5.9168649 -1.52299523 2.93720508 0 0 Z " fill="#1E2228" transform="translate(201,117)"/>
<path d="M0 0 C2.4375 1.125 2.4375 1.125 5 3 C5.8125 6.1875 5.8125 6.1875 6 9 C3.72494996 6.83328568 1.76424908 4.60436769 0 2 C0 1.34 0 0.68 0 0 Z " fill="#24262B" transform="translate(268,117)"/>
<path d="M0 0 C0.66 0.66 1.32 1.32 2 2 C0.35 4.31 -1.3 6.62 -3 9 C-3.33 8.01 -3.66 7.02 -4 6 C-2.0625 2.8125 -2.0625 2.8125 0 0 Z " fill="#1D1D20" transform="translate(208,106)"/>
<path d="M0 0 C2.96865509 2.54456151 4.3619751 5.48994665 6 9 C2.83884224 7.63016497 2.0072908 7.0109362 0 4 C0 2.68 0 1.36 0 0 Z " fill="#1A1A1C" transform="translate(359,67)"/>
<path d="M0 0 C2.50037734 2.17424117 3.43628586 3.73045798 4 7 C3.01 7.495 3.01 7.495 2 8 C0.4375 5.6875 0.4375 5.6875 -1 3 C-0.67 2.01 -0.34 1.02 0 0 Z " fill="#1F1D22" transform="translate(96,200)"/>
<path d="M0 0 C1.74271938 2.297221 3.39911152 4.59866729 5 7 C4.625 9.1875 4.625 9.1875 4 11 C0 4.5 0 4.5 0 0 Z " fill="#2C1E30" transform="translate(354,188)"/>
<path d="M0 0 C2.25245881 2.68841859 3.88213958 4.64641875 5 8 C2.00675737 6.9024777 1.15389099 6.32317108 -0.25 3.375 C-0.4975 2.59125 -0.745 1.8075 -1 1 C-0.67 0.67 -0.34 0.34 0 0 Z " fill="#2C2930" transform="translate(82,177)"/>
<path d="M0 0 C0.33 0.66 0.66 1.32 1 2 C0.22265625 3.7265625 0.22265625 3.7265625 -0.9375 5.625 C-1.618125 6.73875 -2.29875 7.8525 -3 9 C-3.66 8.01 -4.32 7.02 -5 6 C-2.25 1.125 -2.25 1.125 0 0 Z " fill="#1E1524" transform="translate(325,157)"/>
<path d="M0 0 C1.5 1.375 1.5 1.375 3 3 C3 3.66 3 4.32 3 5 C1.02 5.66 -0.96 6.32 -3 7 C-1.125 2.25 -1.125 2.25 0 0 Z " fill="#2B8AC3" transform="translate(211,151)"/>
<path d="M0 0 C0.99 0.33 1.98 0.66 3 1 C1.68 3.31 0.36 5.62 -1 8 C-1.66 7.01 -2.32 6.02 -3 5 C-2.01 3.35 -1.02 1.7 0 0 Z " fill="#1D1D23" transform="translate(186,144)"/>
<path d="M0 0 C1.32 0.33 2.64 0.66 4 1 C5.25 4.0625 5.25 4.0625 6 7 C5.01 7.495 5.01 7.495 4 8 C2.68 5.36 1.36 2.72 0 0 Z " fill="#1C1D1F" transform="translate(219,118)"/>
<path d="M0 0 C1.5 1.3125 1.5 1.3125 3 3 C3 3.99 3 4.98 3 6 C1.35 5.67 -0.3 5.34 -2 5 C-1.34 3.35 -0.68 1.7 0 0 Z " fill="#222427" transform="translate(211,100)"/>
<path d="M0 0 C2.74277578 3.19990508 4.6302836 6.00499382 6 10 C5.34 10 4.68 10 4 10 C0 3.375 0 3.375 0 0 Z " fill="#150F20" transform="translate(344,171)"/>
<path d="M0 0 C0.625 1.8125 0.625 1.8125 1 4 C0.01 5.485 0.01 5.485 -1 7 C-1.99 6.67 -2.98 6.34 -4 6 C-2.68 4.02 -1.36 2.04 0 0 Z " fill="#1C1919" transform="translate(209,151)"/>
<path d="M0 0 C2 1.8125 2 1.8125 4 4 C4 4.99 4 5.98 4 7 C3.01 6.67 2.02 6.34 1 6 C0.67 4.02 0.34 2.04 0 0 Z " fill="#242426" transform="translate(282,130)"/>
<path d="M0 0 C2.72426311 2.35277269 3.8141763 4.62496331 5 8 C3.0625 7.375 3.0625 7.375 1 6 C0.25 2.875 0.25 2.875 0 0 Z " fill="#1D1D1E" transform="translate(257,95)"/>
<path d="M0 0 C4.42857143 5.14285714 4.42857143 5.14285714 5 9 C2 8 2 8 0.8125 6.1875 C0 4 0 4 0 0 Z " fill="#1E2028" transform="translate(354,58)"/>
</svg>
